<?xml version="1.0" encoding="UTF-8" standalone="no"?>
<!-- Created with Inkscape (http://www.inkscape.org/) -->

<svg
   width="1600"
   height="900"
   viewBox="0 0 423.33332 238.125"
   version="1.1"
   id="svg1"
   inkscape:version="1.4.2 (ebf0e940d0, 2025-05-08)"
   sodipodi:docname="genkit.svg"
   xml:space="preserve"
   xmlns:inkscape="http://www.inkscape.org/namespaces/inkscape"
   xmlns:sodipodi="http://sodipodi.sourceforge.net/DTD/sodipodi-0.dtd"
   xmlns:xlink="http://www.w3.org/1999/xlink"
   xmlns="http://www.w3.org/2000/svg"
   xmlns:svg="http://www.w3.org/2000/svg"><sodipodi:namedview
     id="namedview1"
     pagecolor="#505050"
     bordercolor="#eeeeee"
     borderopacity="1"
     inkscape:showpageshadow="0"
     inkscape:pageopacity="0"
     inkscape:pagecheckerboard="0"
     inkscape:deskcolor="#d1d1d1"
     inkscape:document-units="mm"
     inkscape:zoom="0.34183828"
     inkscape:cx="800.08595"
     inkscape:cy="605.54951"
     inkscape:window-width="1280"
     inkscape:window-height="720"
     inkscape:window-x="0"
     inkscape:window-y="115"
     inkscape:window-maximized="1"
     inkscape:current-layer="layer1" /><defs
     id="defs1"><linearGradient
       id="swatch253"><stop
         style="stop-color:#ffffff;stop-opacity:1;"
         offset="0"
         id="stop253" /><stop
         style="stop-color:#7c7c7c;stop-opacity:1;"
         offset="1"
         id="stop254" /></linearGradient><linearGradient
       id="linearGradient216"
       inkscape:swatch="gradient"><stop
         style="stop-color:#e3dbdb;stop-opacity:1;"
         offset="0"
         id="stop217" /><stop
         style="stop-color:#e3dbdb;stop-opacity:0;"
         offset="1"
         id="stop218" /></linearGradient><linearGradient
       id="linearGradient188"
       inkscape:collect="always"><stop
         style="stop-color:#ffffff;stop-opacity:1;"
         offset="0"
         id="stop188" /><stop
         style="stop-color:#c9c9c9;stop-opacity:1;"
         offset="0.59074986"
         id="stop189" /></linearGradient><pattern
       inkscape:collect="always"
       xlink:href="#pattern3"
       id="pattern187"
       patternTransform="matrix(6,0,0,6,1308,735)"
       x="66.15000153"
       y="0.40000001"
       preserveAspectRatio="xMidYMid" /><pattern
       patternUnits="userSpaceOnUse"
       width="10"
       height="10"
       style="fill:#ffffff"
       patternTransform="translate(1308,735) scale(2)"
       id="pattern3"
       inkscape:label="Circle fill 6"
       inkscape:collect="always"
       inkscape:isstock="true"><path
         id="path2"
         style="stroke:none;stroke-width:4.8561;stroke-linecap:square;paint-order:stroke markers fill;stop-color:#000000"
         d="m 5,5 c 0,3 2,5 5,5 C 10,7 8,5 5,5 Z M 0,10 C 0,7 2,5 5,5 5,8 3,10 0,10 Z M 5,5 C 5,2 7,0 10,0 10,3 8,5 5,5 Z M 0,0 C 0,3 2,5 5,5 5,2 3,0 0,0 Z" /></pattern><clipPath
       clipPathUnits="userSpaceOnUse"
       id="clipPath24"><rect
         style="fill:none;stroke:#000000;stroke-width:0.999999;stroke-linecap:butt;stroke-linejoin:bevel;paint-order:stroke markers fill;stop-color:#000000"
         id="rect24"
         width="44.999748"
         height="77.937294"
         x="251.53429"
         y="222.73541" /></clipPath><pattern
       inkscape:collect="always"
       xlink:href="#rain-2-5"
       preserveAspectRatio="xMidYMid"
       id="pattern170-7"
       patternTransform="matrix(0.01,0,0,0.01,230,45)"
       x="0"
       y="0" /><pattern
       patternUnits="userSpaceOnUse"
       width="130"
       height="100"
       patternTransform="translate(230,45) scale(0.3)"
       preserveAspectRatio="xMidYMid"
       style="fill:#000000"
       id="rain-2-5"
       inkscape:label="Rain drops 2"
       inkscape:collect="always"
       inkscape:isstock="true"><path
         id="path14-9-3"
         style="fill-rule:nonzero;stroke-width:4.8561;stroke-linecap:square;paint-order:stroke markers fill;stop-color:#000000"
         d="M 40,0 C 33.36247,0 27.49731,3.246995 23.85938,8.224609 L 0,40 H 40 C 51.04568,40 60,31.045679 60,20 60,8.95432 51.04568,0 40,0 Z m 65,0 C 98.36247,0 92.49731,3.246995 88.84766,8.203125 L 65,40 h 40 c 11.04568,0 20,-8.954321 20,-20 C 125,8.95432 116.04568,0 105,0 Z M 0,50 V 90 C 11.04567,90 20,81.04567 20,70 20,58.95433 11.04567,50 0,50 Z m 65,0 c -6.63851,0 -12.50476,3.247697 -16.14258,8.22656 L 25,90 H 65 C 76.04568,90 85,81.04568 85,70 85,58.95432 76.04568,50 65,50 Z m 65,0 c -6.63474,0 -12.5121,3.232969 -16.15039,8.20703 L 90,90 h 40 z"
         sodipodi:nodetypes="sccssssccsssccscsccsssccccc" /><path
         style="opacity:1;fill-rule:nonzero;stroke-width:4.8561;stroke-linecap:square;paint-order:stroke markers fill;stop-color:#000000"
         d="m 125,100 h 5"
         id="path159-5" /></pattern><pattern
       inkscape:collect="always"
       xlink:href="#rain-2-9"
       preserveAspectRatio="xMidYMid"
       id="pattern170-70"
       patternTransform="matrix(0.01,0,0,0.01,230,45)"
       x="0"
       y="0" /><pattern
       patternUnits="userSpaceOnUse"
       width="130"
       height="100"
       patternTransform="translate(230,45) scale(0.3)"
       preserveAspectRatio="xMidYMid"
       style="fill:#000000"
       id="rain-2-9"
       inkscape:label="Rain drops 2"
       inkscape:collect="always"
       inkscape:isstock="true"><path
         id="path14-9-36"
         style="fill-rule:nonzero;stroke-width:4.8561;stroke-linecap:square;paint-order:stroke markers fill;stop-color:#000000"
         d="M 40,0 C 33.36247,0 27.49731,3.246995 23.85938,8.224609 L 0,40 H 40 C 51.04568,40 60,31.045679 60,20 60,8.95432 51.04568,0 40,0 Z m 65,0 C 98.36247,0 92.49731,3.246995 88.84766,8.203125 L 65,40 h 40 c 11.04568,0 20,-8.954321 20,-20 C 125,8.95432 116.04568,0 105,0 Z M 0,50 V 90 C 11.04567,90 20,81.04567 20,70 20,58.95433 11.04567,50 0,50 Z m 65,0 c -6.63851,0 -12.50476,3.247697 -16.14258,8.22656 L 25,90 H 65 C 76.04568,90 85,81.04568 85,70 85,58.95432 76.04568,50 65,50 Z m 65,0 c -6.63474,0 -12.5121,3.232969 -16.15039,8.20703 L 90,90 h 40 z"
         sodipodi:nodetypes="sccssssccsssccscsccsssccccc" /><path
         style="opacity:1;fill-rule:nonzero;stroke-width:4.8561;stroke-linecap:square;paint-order:stroke markers fill;stop-color:#000000"
         d="m 125,100 h 5"
         id="path159-0" /></pattern><pattern
       inkscape:collect="always"
       xlink:href="#rain-2-2"
       preserveAspectRatio="xMidYMid"
       id="pattern170-79"
       patternTransform="matrix(0.01,0,0,0.01,230,45)"
       x="0"
       y="0" /><pattern
       patternUnits="userSpaceOnUse"
       width="130"
       height="100"
       patternTransform="translate(230,45) scale(0.3)"
       preserveAspectRatio="xMidYMid"
       style="fill:#000000"
       id="rain-2-2"
       inkscape:label="Rain drops 2"
       inkscape:collect="always"
       inkscape:isstock="true"><path
         id="path14-9-0"
         style="fill-rule:nonzero;stroke-width:4.8561;stroke-linecap:square;paint-order:stroke markers fill;stop-color:#000000"
         d="M 40,0 C 33.36247,0 27.49731,3.246995 23.85938,8.224609 L 0,40 H 40 C 51.04568,40 60,31.045679 60,20 60,8.95432 51.04568,0 40,0 Z m 65,0 C 98.36247,0 92.49731,3.246995 88.84766,8.203125 L 65,40 h 40 c 11.04568,0 20,-8.954321 20,-20 C 125,8.95432 116.04568,0 105,0 Z M 0,50 V 90 C 11.04567,90 20,81.04567 20,70 20,58.95433 11.04567,50 0,50 Z m 65,0 c -6.63851,0 -12.50476,3.247697 -16.14258,8.22656 L 25,90 H 65 C 76.04568,90 85,81.04568 85,70 85,58.95432 76.04568,50 65,50 Z m 65,0 c -6.63474,0 -12.5121,3.232969 -16.15039,8.20703 L 90,90 h 40 z"
         sodipodi:nodetypes="sccssssccsssccscsccsssccccc" /><path
         style="opacity:1;fill-rule:nonzero;stroke-width:4.8561;stroke-linecap:square;paint-order:stroke markers fill;stop-color:#000000"
         d="m 125,100 h 5"
         id="path159-2" /></pattern><pattern
       inkscape:collect="always"
       xlink:href="#rain-2-8"
       preserveAspectRatio="xMidYMid"
       id="pattern170-2"
       patternTransform="matrix(0.01,0,0,0.01,230,45)"
       x="0"
       y="0" /><pattern
       patternUnits="userSpaceOnUse"
       width="130"
       height="100"
       patternTransform="translate(230,45) scale(0.3)"
       preserveAspectRatio="xMidYMid"
       style="fill:#000000"
       id="rain-2-8"
       inkscape:label="Rain drops 2"
       inkscape:collect="always"
       inkscape:isstock="true"><path
         id="path14-9-9"
         style="fill-rule:nonzero;stroke-width:4.8561;stroke-linecap:square;paint-order:stroke markers fill;stop-color:#000000"
         d="M 40,0 C 33.36247,0 27.49731,3.246995 23.85938,8.224609 L 0,40 H 40 C 51.04568,40 60,31.045679 60,20 60,8.95432 51.04568,0 40,0 Z m 65,0 C 98.36247,0 92.49731,3.246995 88.84766,8.203125 L 65,40 h 40 c 11.04568,0 20,-8.954321 20,-20 C 125,8.95432 116.04568,0 105,0 Z M 0,50 V 90 C 11.04567,90 20,81.04567 20,70 20,58.95433 11.04567,50 0,50 Z m 65,0 c -6.63851,0 -12.50476,3.247697 -16.14258,8.22656 L 25,90 H 65 C 76.04568,90 85,81.04568 85,70 85,58.95432 76.04568,50 65,50 Z m 65,0 c -6.63474,0 -12.5121,3.232969 -16.15039,8.20703 L 90,90 h 40 z"
         sodipodi:nodetypes="sccssssccsssccscsccsssccccc" /><path
         style="opacity:1;fill-rule:nonzero;stroke-width:4.8561;stroke-linecap:square;paint-order:stroke markers fill;stop-color:#000000"
         d="m 125,100 h 5"
         id="path159-7" /></pattern><pattern
       inkscape:collect="always"
       xlink:href="#rain-2-1"
       preserveAspectRatio="xMidYMid"
       id="pattern170-3"
       patternTransform="matrix(0.01,0,0,0.01,230,45)"
       x="0"
       y="0" /><pattern
       patternUnits="userSpaceOnUse"
       width="130"
       height="100"
       patternTransform="translate(230,45) scale(0.3)"
       preserveAspectRatio="xMidYMid"
       style="fill:#000000"
       id="rain-2-1"
       inkscape:label="Rain drops 2"
       inkscape:collect="always"
       inkscape:isstock="true"><path
         id="path14-9-94"
         style="fill-rule:nonzero;stroke-width:4.8561;stroke-linecap:square;paint-order:stroke markers fill;stop-color:#000000"
         d="M 40,0 C 33.36247,0 27.49731,3.246995 23.85938,8.224609 L 0,40 H 40 C 51.04568,40 60,31.045679 60,20 60,8.95432 51.04568,0 40,0 Z m 65,0 C 98.36247,0 92.49731,3.246995 88.84766,8.203125 L 65,40 h 40 c 11.04568,0 20,-8.954321 20,-20 C 125,8.95432 116.04568,0 105,0 Z M 0,50 V 90 C 11.04567,90 20,81.04567 20,70 20,58.95433 11.04567,50 0,50 Z m 65,0 c -6.63851,0 -12.50476,3.247697 -16.14258,8.22656 L 25,90 H 65 C 76.04568,90 85,81.04568 85,70 85,58.95432 76.04568,50 65,50 Z m 65,0 c -6.63474,0 -12.5121,3.232969 -16.15039,8.20703 L 90,90 h 40 z"
         sodipodi:nodetypes="sccssssccsssccscsccsssccccc" /><path
         style="opacity:1;fill-rule:nonzero;stroke-width:4.8561;stroke-linecap:square;paint-order:stroke markers fill;stop-color:#000000"
         d="m 125,100 h 5"
         id="path159-78" /></pattern><pattern
       inkscape:collect="always"
       xlink:href="#rain-2-0"
       preserveAspectRatio="xMidYMid"
       id="pattern170-1"
       patternTransform="matrix(0.01,0,0,0.01,230,45)"
       x="0"
       y="0" /><pattern
       patternUnits="userSpaceOnUse"
       width="130"
       height="100"
       patternTransform="translate(230,45) scale(0.3)"
       preserveAspectRatio="xMidYMid"
       style="fill:#000000"
       id="rain-2-0"
       inkscape:label="Rain drops 2"
       inkscape:collect="always"
       inkscape:isstock="true"><path
         id="path14-9-6"
         style="fill-rule:nonzero;stroke-width:4.8561;stroke-linecap:square;paint-order:stroke markers fill;stop-color:#000000"
         d="M 40,0 C 33.36247,0 27.49731,3.246995 23.85938,8.224609 L 0,40 H 40 C 51.04568,40 60,31.045679 60,20 60,8.95432 51.04568,0 40,0 Z m 65,0 C 98.36247,0 92.49731,3.246995 88.84766,8.203125 L 65,40 h 40 c 11.04568,0 20,-8.954321 20,-20 C 125,8.95432 116.04568,0 105,0 Z M 0,50 V 90 C 11.04567,90 20,81.04567 20,70 20,58.95433 11.04567,50 0,50 Z m 65,0 c -6.63851,0 -12.50476,3.247697 -16.14258,8.22656 L 25,90 H 65 C 76.04568,90 85,81.04568 85,70 85,58.95432 76.04568,50 65,50 Z m 65,0 c -6.63474,0 -12.5121,3.232969 -16.15039,8.20703 L 90,90 h 40 z"
         sodipodi:nodetypes="sccssssccsssccscsccsssccccc" /><path
         style="opacity:1;fill-rule:nonzero;stroke-width:4.8561;stroke-linecap:square;paint-order:stroke markers fill;stop-color:#000000"
         d="m 125,100 h 5"
         id="path159-3" /></pattern><pattern
       inkscape:collect="always"
       xlink:href="#rain-2-4"
       preserveAspectRatio="xMidYMid"
       id="pattern170-5"
       patternTransform="matrix(0.01,0,0,0.01,230,45)"
       x="0"
       y="0" /><pattern
       patternUnits="userSpaceOnUse"
       width="130"
       height="100"
       patternTransform="translate(230,45) scale(0.3)"
       preserveAspectRatio="xMidYMid"
       style="fill:#000000"
       id="rain-2-4"
       inkscape:label="Rain drops 2"
       inkscape:collect="always"
       inkscape:isstock="true"><path
         id="path14-9-7"
         style="fill-rule:nonzero;stroke-width:4.8561;stroke-linecap:square;paint-order:stroke markers fill;stop-color:#000000"
         d="M 40,0 C 33.36247,0 27.49731,3.246995 23.85938,8.224609 L 0,40 H 40 C 51.04568,40 60,31.045679 60,20 60,8.95432 51.04568,0 40,0 Z m 65,0 C 98.36247,0 92.49731,3.246995 88.84766,8.203125 L 65,40 h 40 c 11.04568,0 20,-8.954321 20,-20 C 125,8.95432 116.04568,0 105,0 Z M 0,50 V 90 C 11.04567,90 20,81.04567 20,70 20,58.95433 11.04567,50 0,50 Z m 65,0 c -6.63851,0 -12.50476,3.247697 -16.14258,8.22656 L 25,90 H 65 C 76.04568,90 85,81.04568 85,70 85,58.95432 76.04568,50 65,50 Z m 65,0 c -6.63474,0 -12.5121,3.232969 -16.15039,8.20703 L 90,90 h 40 z"
         sodipodi:nodetypes="sccssssccsssccscsccsssccccc" /><path
         style="opacity:1;fill-rule:nonzero;stroke-width:4.8561;stroke-linecap:square;paint-order:stroke markers fill;stop-color:#000000"
         d="m 125,100 h 5"
         id="path159-6" /></pattern><pattern
       inkscape:collect="always"
       xlink:href="#rain-2-52"
       preserveAspectRatio="xMidYMid"
       id="pattern170-4"
       patternTransform="matrix(0.01,0,0,0.01,230,45)"
       x="0"
       y="0" /><pattern
       patternUnits="userSpaceOnUse"
       width="130"
       height="100"
       patternTransform="translate(230,45) scale(0.3)"
       preserveAspectRatio="xMidYMid"
       style="fill:#000000"
       id="rain-2-52"
       inkscape:label="Rain drops 2"
       inkscape:collect="always"
       inkscape:isstock="true"><path
         id="path14-9-5"
         style="fill-rule:nonzero;stroke-width:4.8561;stroke-linecap:square;paint-order:stroke markers fill;stop-color:#000000"
         d="M 40,0 C 33.36247,0 27.49731,3.246995 23.85938,8.224609 L 0,40 H 40 C 51.04568,40 60,31.045679 60,20 60,8.95432 51.04568,0 40,0 Z m 65,0 C 98.36247,0 92.49731,3.246995 88.84766,8.203125 L 65,40 h 40 c 11.04568,0 20,-8.954321 20,-20 C 125,8.95432 116.04568,0 105,0 Z M 0,50 V 90 C 11.04567,90 20,81.04567 20,70 20,58.95433 11.04567,50 0,50 Z m 65,0 c -6.63851,0 -12.50476,3.247697 -16.14258,8.22656 L 25,90 H 65 C 76.04568,90 85,81.04568 85,70 85,58.95432 76.04568,50 65,50 Z m 65,0 c -6.63474,0 -12.5121,3.232969 -16.15039,8.20703 L 90,90 h 40 z"
         sodipodi:nodetypes="sccssssccsssccscsccsssccccc" /><path
         style="opacity:1;fill-rule:nonzero;stroke-width:4.8561;stroke-linecap:square;paint-order:stroke markers fill;stop-color:#000000"
         d="m 125,100 h 5"
         id="path159-4" /></pattern><pattern
       inkscape:collect="always"
       xlink:href="#rain-2-6"
       preserveAspectRatio="xMidYMid"
       id="pattern170-78"
       patternTransform="matrix(0.01,0,0,0.01,230,45)"
       x="0"
       y="0" /><pattern
       patternUnits="userSpaceOnUse"
       width="130"
       height="100"
       patternTransform="translate(230,45) scale(0.3)"
       preserveAspectRatio="xMidYMid"
       style="fill:#000000"
       id="rain-2-6"
       inkscape:label="Rain drops 2"
       inkscape:collect="always"
       inkscape:isstock="true"><path
         id="path14-9-8"
         style="fill-rule:nonzero;stroke-width:4.8561;stroke-linecap:square;paint-order:stroke markers fill;stop-color:#000000"
         d="M 40,0 C 33.36247,0 27.49731,3.246995 23.85938,8.224609 L 0,40 H 40 C 51.04568,40 60,31.045679 60,20 60,8.95432 51.04568,0 40,0 Z m 65,0 C 98.36247,0 92.49731,3.246995 88.84766,8.203125 L 65,40 h 40 c 11.04568,0 20,-8.954321 20,-20 C 125,8.95432 116.04568,0 105,0 Z M 0,50 V 90 C 11.04567,90 20,81.04567 20,70 20,58.95433 11.04567,50 0,50 Z m 65,0 c -6.63851,0 -12.50476,3.247697 -16.14258,8.22656 L 25,90 H 65 C 76.04568,90 85,81.04568 85,70 85,58.95432 76.04568,50 65,50 Z m 65,0 c -6.63474,0 -12.5121,3.232969 -16.15039,8.20703 L 90,90 h 40 z"
         sodipodi:nodetypes="sccssssccsssccscsccsssccccc" /><path
         style="opacity:1;fill-rule:nonzero;stroke-width:4.8561;stroke-linecap:square;paint-order:stroke markers fill;stop-color:#000000"
         d="m 125,100 h 5"
         id="path159-8" /></pattern><pattern
       inkscape:collect="always"
       xlink:href="#rain-2-68"
       preserveAspectRatio="xMidYMid"
       id="pattern170-20"
       patternTransform="matrix(0.01,0,0,0.01,230,45)"
       x="0"
       y="0" /><pattern
       patternUnits="userSpaceOnUse"
       width="130"
       height="100"
       patternTransform="translate(230,45) scale(0.3)"
       preserveAspectRatio="xMidYMid"
       style="fill:#000000"
       id="rain-2-68"
       inkscape:label="Rain drops 2"
       inkscape:collect="always"
       inkscape:isstock="true"><path
         id="path14-9-92"
         style="fill-rule:nonzero;stroke-width:4.8561;stroke-linecap:square;paint-order:stroke markers fill;stop-color:#000000"
         d="M 40,0 C 33.36247,0 27.49731,3.246995 23.85938,8.224609 L 0,40 H 40 C 51.04568,40 60,31.045679 60,20 60,8.95432 51.04568,0 40,0 Z m 65,0 C 98.36247,0 92.49731,3.246995 88.84766,8.203125 L 65,40 h 40 c 11.04568,0 20,-8.954321 20,-20 C 125,8.95432 116.04568,0 105,0 Z M 0,50 V 90 C 11.04567,90 20,81.04567 20,70 20,58.95433 11.04567,50 0,50 Z m 65,0 c -6.63851,0 -12.50476,3.247697 -16.14258,8.22656 L 25,90 H 65 C 76.04568,90 85,81.04568 85,70 85,58.95432 76.04568,50 65,50 Z m 65,0 c -6.63474,0 -12.5121,3.232969 -16.15039,8.20703 L 90,90 h 40 z"
         sodipodi:nodetypes="sccssssccsssccscsccsssccccc" /><path
         style="opacity:1;fill-rule:nonzero;stroke-width:4.8561;stroke-linecap:square;paint-order:stroke markers fill;stop-color:#000000"
         d="m 125,100 h 5"
         id="path159-66" /></pattern><linearGradient
       inkscape:collect="always"
       xlink:href="#linearGradient188"
       id="linearGradient190"
       gradientUnits="userSpaceOnUse"
       x1="211.66667"
       y1="330.72919"
       x2="211.66667"
       y2="-92.604149"
       spreadMethod="pad" /><pattern
       inkscape:collect="always"
       xlink:href="#pattern170-71"
       preserveAspectRatio="xMidYMid"
       id="pattern177-8"
       patternTransform="matrix(0.02546467,0,0,0.02546467,522.98103,94.673513)" /><pattern
       inkscape:collect="always"
       xlink:href="#rain-2-7"
       preserveAspectRatio="xMidYMid"
       id="pattern170-71"
       patternTransform="matrix(0.01,0,0,0.01,230,45)"
       x="0"
       y="0" /><pattern
       patternUnits="userSpaceOnUse"
       width="130"
       height="100"
       patternTransform="translate(230,45) scale(0.3)"
       preserveAspectRatio="xMidYMid"
       style="fill:#a5b8ff"
       id="rain-2-7"
       inkscape:label="Rain drops 2"
       inkscape:collect="always"
       inkscape:isstock="true"><path
         id="path14-9-2"
         style="fill-rule:nonzero;stroke-width:4.8561;stroke-linecap:square;paint-order:stroke markers fill;stop-color:#000000"
         d="M 40,0 C 33.36247,0 27.49731,3.246995 23.85938,8.224609 L 0,40 H 40 C 51.04568,40 60,31.045679 60,20 60,8.95432 51.04568,0 40,0 Z m 65,0 C 98.36247,0 92.49731,3.246995 88.84766,8.203125 L 65,40 h 40 c 11.04568,0 20,-8.954321 20,-20 C 125,8.95432 116.04568,0 105,0 Z M 0,50 V 90 C 11.04567,90 20,81.04567 20,70 20,58.95433 11.04567,50 0,50 Z m 65,0 c -6.63851,0 -12.50476,3.247697 -16.14258,8.22656 L 25,90 H 65 C 76.04568,90 85,81.04568 85,70 85,58.95432 76.04568,50 65,50 Z m 65,0 c -6.63474,0 -12.5121,3.232969 -16.15039,8.20703 L 90,90 h 40 z"
         sodipodi:nodetypes="sccssssccsssccscsccsssccccc" /><path
         style="opacity:1;fill-rule:nonzero;stroke-width:4.8561;stroke-linecap:square;paint-order:stroke markers fill;stop-color:#000000"
         d="m 125,100 h 5"
         id="path159-72" /></pattern><pattern
       inkscape:collect="always"
       xlink:href="#pattern170-59"
       preserveAspectRatio="xMidYMid"
       id="pattern177-1"
       patternTransform="matrix(0.02546467,0,0,0.02546467,522.98103,94.673513)" /><pattern
       inkscape:collect="always"
       xlink:href="#rain-2-49"
       preserveAspectRatio="xMidYMid"
       id="pattern170-59"
       patternTransform="matrix(0.01,0,0,0.01,230,45)"
       x="0"
       y="0" /><pattern
       patternUnits="userSpaceOnUse"
       width="130"
       height="100"
       patternTransform="translate(230,45) scale(0.3)"
       preserveAspectRatio="xMidYMid"
       style="fill:#a5b8ff"
       id="rain-2-49"
       inkscape:label="Rain drops 2"
       inkscape:collect="always"
       inkscape:isstock="true"><path
         id="path14-9-09"
         style="fill-rule:nonzero;stroke-width:4.8561;stroke-linecap:square;paint-order:stroke markers fill;stop-color:#000000"
         d="M 40,0 C 33.36247,0 27.49731,3.246995 23.85938,8.224609 L 0,40 H 40 C 51.04568,40 60,31.045679 60,20 60,8.95432 51.04568,0 40,0 Z m 65,0 C 98.36247,0 92.49731,3.246995 88.84766,8.203125 L 65,40 h 40 c 11.04568,0 20,-8.954321 20,-20 C 125,8.95432 116.04568,0 105,0 Z M 0,50 V 90 C 11.04567,90 20,81.04567 20,70 20,58.95433 11.04567,50 0,50 Z m 65,0 c -6.63851,0 -12.50476,3.247697 -16.14258,8.22656 L 25,90 H 65 C 76.04568,90 85,81.04568 85,70 85,58.95432 76.04568,50 65,50 Z m 65,0 c -6.63474,0 -12.5121,3.232969 -16.15039,8.20703 L 90,90 h 40 z"
         sodipodi:nodetypes="sccssssccsssccscsccsssccccc" /><path
         style="opacity:1;fill-rule:nonzero;stroke-width:4.8561;stroke-linecap:square;paint-order:stroke markers fill;stop-color:#000000"
         d="m 125,100 h 5"
         id="path159-1" /></pattern><pattern
       inkscape:collect="always"
       xlink:href="#pattern170-77"
       preserveAspectRatio="xMidYMid"
       id="pattern177-9"
       patternTransform="matrix(0.02546467,0,0,0.02546467,522.98103,94.673513)" /><pattern
       inkscape:collect="always"
       xlink:href="#rain-2-67"
       preserveAspectRatio="xMidYMid"
       id="pattern170-77"
       patternTransform="matrix(0.01,0,0,0.01,230,45)"
       x="0"
       y="0" /><pattern
       patternUnits="userSpaceOnUse"
       width="130"
       height="100"
       patternTransform="translate(230,45) scale(0.3)"
       preserveAspectRatio="xMidYMid"
       style="fill:#a5b8ff"
       id="rain-2-67"
       inkscape:label="Rain drops 2"
       inkscape:collect="always"
       inkscape:isstock="true"><path
         id="path14-9-365"
         style="fill-rule:nonzero;stroke-width:4.8561;stroke-linecap:square;paint-order:stroke markers fill;stop-color:#000000"
         d="M 40,0 C 33.36247,0 27.49731,3.246995 23.85938,8.224609 L 0,40 H 40 C 51.04568,40 60,31.045679 60,20 60,8.95432 51.04568,0 40,0 Z m 65,0 C 98.36247,0 92.49731,3.246995 88.84766,8.203125 L 65,40 h 40 c 11.04568,0 20,-8.954321 20,-20 C 125,8.95432 116.04568,0 105,0 Z M 0,50 V 90 C 11.04567,90 20,81.04567 20,70 20,58.95433 11.04567,50 0,50 Z m 65,0 c -6.63851,0 -12.50476,3.247697 -16.14258,8.22656 L 25,90 H 65 C 76.04568,90 85,81.04568 85,70 85,58.95432 76.04568,50 65,50 Z m 65,0 c -6.63474,0 -12.5121,3.232969 -16.15039,8.20703 L 90,90 h 40 z"
         sodipodi:nodetypes="sccssssccsssccscsccsssccccc" /><path
         style="opacity:1;fill-rule:nonzero;stroke-width:4.8561;stroke-linecap:square;paint-order:stroke markers fill;stop-color:#000000"
         d="m 125,100 h 5"
         id="path159-63" /></pattern><pattern
       inkscape:collect="always"
       xlink:href="#pattern170-9"
       preserveAspectRatio="xMidYMid"
       id="pattern177-93"
       patternTransform="matrix(0.02546467,0,0,0.02546467,522.98103,94.673513)" /><pattern
       inkscape:collect="always"
       xlink:href="#rain-2-08"
       preserveAspectRatio="xMidYMid"
       id="pattern170-9"
       patternTransform="matrix(0.01,0,0,0.01,230,45)"
       x="0"
       y="0" /><pattern
       patternUnits="userSpaceOnUse"
       width="130"
       height="100"
       patternTransform="translate(230,45) scale(0.3)"
       preserveAspectRatio="xMidYMid"
       style="fill:#a5b8ff"
       id="rain-2-08"
       inkscape:label="Rain drops 2"
       inkscape:collect="always"
       inkscape:isstock="true"><path
         id="path14-9-85"
         style="fill-rule:nonzero;stroke-width:4.8561;stroke-linecap:square;paint-order:stroke markers fill;stop-color:#000000"
         d="M 40,0 C 33.36247,0 27.49731,3.246995 23.85938,8.224609 L 0,40 H 40 C 51.04568,40 60,31.045679 60,20 60,8.95432 51.04568,0 40,0 Z m 65,0 C 98.36247,0 92.49731,3.246995 88.84766,8.203125 L 65,40 h 40 c 11.04568,0 20,-8.954321 20,-20 C 125,8.95432 116.04568,0 105,0 Z M 0,50 V 90 C 11.04567,90 20,81.04567 20,70 20,58.95433 11.04567,50 0,50 Z m 65,0 c -6.63851,0 -12.50476,3.247697 -16.14258,8.22656 L 25,90 H 65 C 76.04568,90 85,81.04568 85,70 85,58.95432 76.04568,50 65,50 Z m 65,0 c -6.63474,0 -12.5121,3.232969 -16.15039,8.20703 L 90,90 h 40 z"
         sodipodi:nodetypes="sccssssccsssccscsccsssccccc" /><path
         style="opacity:1;fill-rule:nonzero;stroke-width:4.8561;stroke-linecap:square;paint-order:stroke markers fill;stop-color:#000000"
         d="m 125,100 h 5"
         id="path159-09" /></pattern><pattern
       inkscape:collect="always"
       xlink:href="#pattern170-598"
       preserveAspectRatio="xMidYMid"
       id="pattern177-11"
       patternTransform="matrix(0.02546467,0,0,0.02546467,522.98103,94.673513)" /><pattern
       inkscape:collect="always"
       xlink:href="#rain-2-48"
       preserveAspectRatio="xMidYMid"
       id="pattern170-598"
       patternTransform="matrix(0.01,0,0,0.01,230,45)"
       x="0"
       y="0" /><pattern
       patternUnits="userSpaceOnUse"
       width="130"
       height="100"
       patternTransform="translate(230,45) scale(0.3)"
       preserveAspectRatio="xMidYMid"
       style="fill:#a5b8ff"
       id="rain-2-48"
       inkscape:label="Rain drops 2"
       inkscape:collect="always"
       inkscape:isstock="true"><path
         id="path14-9-1"
         style="fill-rule:nonzero;stroke-width:4.8561;stroke-linecap:square;paint-order:stroke markers fill;stop-color:#000000"
         d="M 40,0 C 33.36247,0 27.49731,3.246995 23.85938,8.224609 L 0,40 H 40 C 51.04568,40 60,31.045679 60,20 60,8.95432 51.04568,0 40,0 Z m 65,0 C 98.36247,0 92.49731,3.246995 88.84766,8.203125 L 65,40 h 40 c 11.04568,0 20,-8.954321 20,-20 C 125,8.95432 116.04568,0 105,0 Z M 0,50 V 90 C 11.04567,90 20,81.04567 20,70 20,58.95433 11.04567,50 0,50 Z m 65,0 c -6.63851,0 -12.50476,3.247697 -16.14258,8.22656 L 25,90 H 65 C 76.04568,90 85,81.04568 85,70 85,58.95432 76.04568,50 65,50 Z m 65,0 c -6.63474,0 -12.5121,3.232969 -16.15039,8.20703 L 90,90 h 40 z"
         sodipodi:nodetypes="sccssssccsssccscsccsssccccc" /><path
         style="opacity:1;fill-rule:nonzero;stroke-width:4.8561;stroke-linecap:square;paint-order:stroke markers fill;stop-color:#000000"
         d="m 125,100 h 5"
         id="path159-03" /></pattern><pattern
       inkscape:collect="always"
       xlink:href="#pattern170-6"
       preserveAspectRatio="xMidYMid"
       id="pattern180-7"
       patternTransform="matrix(0.02546467,0,0,0.02546467,528.37109,93.326009)" /><pattern
       inkscape:collect="always"
       xlink:href="#rain-2-3"
       preserveAspectRatio="xMidYMid"
       id="pattern170-6"
       patternTransform="matrix(0.01,0,0,0.01,230,45)"
       x="0"
       y="0" /><pattern
       patternUnits="userSpaceOnUse"
       width="130"
       height="100"
       patternTransform="translate(230,45) scale(0.3)"
       preserveAspectRatio="xMidYMid"
       style="fill:#a5b8ff"
       id="rain-2-3"
       inkscape:label="Rain drops 2"
       inkscape:collect="always"
       inkscape:isstock="true"><path
         id="path14-9-17"
         style="fill-rule:nonzero;stroke-width:4.8561;stroke-linecap:square;paint-order:stroke markers fill;stop-color:#000000"
         d="M 40,0 C 33.36247,0 27.49731,3.246995 23.85938,8.224609 L 0,40 H 40 C 51.04568,40 60,31.045679 60,20 60,8.95432 51.04568,0 40,0 Z m 65,0 C 98.36247,0 92.49731,3.246995 88.84766,8.203125 L 65,40 h 40 c 11.04568,0 20,-8.954321 20,-20 C 125,8.95432 116.04568,0 105,0 Z M 0,50 V 90 C 11.04567,90 20,81.04567 20,70 20,58.95433 11.04567,50 0,50 Z m 65,0 c -6.63851,0 -12.50476,3.247697 -16.14258,8.22656 L 25,90 H 65 C 76.04568,90 85,81.04568 85,70 85,58.95432 76.04568,50 65,50 Z m 65,0 c -6.63474,0 -12.5121,3.232969 -16.15039,8.20703 L 90,90 h 40 z"
         sodipodi:nodetypes="sccssssccsssccscsccsssccccc" /><path
         style="opacity:1;fill-rule:nonzero;stroke-width:4.8561;stroke-linecap:square;paint-order:stroke markers fill;stop-color:#000000"
         d="m 125,100 h 5"
         id="path159-59" /></pattern><pattern
       inkscape:collect="always"
       xlink:href="#pattern180-74"
       preserveAspectRatio="xMidYMid"
       id="pattern201-5"
       patternTransform="matrix(0.035,0,0,0.035,529.42943,93.855176)"
       x="0"
       y="0" /><pattern
       inkscape:collect="always"
       xlink:href="#pattern170-18"
       preserveAspectRatio="xMidYMid"
       id="pattern180-74"
       patternTransform="matrix(0.02546467,0,0,0.02546467,528.37109,93.326009)" /><pattern
       inkscape:collect="always"
       xlink:href="#rain-2-59"
       preserveAspectRatio="xMidYMid"
       id="pattern170-18"
       patternTransform="matrix(0.01,0,0,0.01,230,45)"
       x="0"
       y="0" /><pattern
       patternUnits="userSpaceOnUse"
       width="130"
       height="100"
       patternTransform="translate(230,45) scale(0.3)"
       preserveAspectRatio="xMidYMid"
       style="fill:#e5e5e5"
       id="rain-2-59"
       inkscape:label="Rain drops 2"
       inkscape:collect="always"
       inkscape:isstock="true"><path
         id="path14-9-75"
         style="fill-rule:nonzero;stroke-width:4.8561;stroke-linecap:square;paint-order:stroke markers fill;stop-color:#000000"
         d="M 40,0 C 33.36247,0 27.49731,3.246995 23.85938,8.224609 L 0,40 H 40 C 51.04568,40 60,31.045679 60,20 60,8.95432 51.04568,0 40,0 Z m 65,0 C 98.36247,0 92.49731,3.246995 88.84766,8.203125 L 65,40 h 40 c 11.04568,0 20,-8.954321 20,-20 C 125,8.95432 116.04568,0 105,0 Z M 0,50 V 90 C 11.04567,90 20,81.04567 20,70 20,58.95433 11.04567,50 0,50 Z m 65,0 c -6.63851,0 -12.50476,3.247697 -16.14258,8.22656 L 25,90 H 65 C 76.04568,90 85,81.04568 85,70 85,58.95432 76.04568,50 65,50 Z m 65,0 c -6.63474,0 -12.5121,3.232969 -16.15039,8.20703 L 90,90 h 40 z"
         sodipodi:nodetypes="sccssssccsssccscsccsssccccc" /><path
         style="opacity:1;fill-rule:nonzero;stroke-width:4.8561;stroke-linecap:square;paint-order:stroke markers fill;stop-color:#000000"
         d="m 125,100 h 5"
         id="path159-38" /></pattern></defs><g
     inkscape:groupmode="layer"
     id="layer2"
     inkscape:label="Background"
     sodipodi:insensitive="true"><rect
       style="opacity:1;fill:url(#linearGradient190);stroke:none;stroke-width:11.8171;stroke-linecap:round;stroke-linejoin:round;paint-order:stroke fill markers;fill-opacity:1"
       id="rect188"
       width="423.33334"
       height="238.125"
       x="0"
       y="0"
       ry="1.9544059"
       sodipodi:insensitive="true"
       inkscape:label="gradient" /><rect
       style="opacity:0.27;mix-blend-mode:overlay;fill:url(#pattern187);fill-opacity:1;stroke:none;stroke-width:11.8171;stroke-linecap:round;stroke-linejoin:round;paint-order:stroke fill markers"
       id="rect19"
       width="423.33334"
       height="238.125"
       x="0"
       y="0"
       ry="1.9544059"
       sodipodi:insensitive="true"
       inkscape:label="shapes" /></g><g
     id="g203"
     transform="matrix(2.1166667,0,0,2.1166667,-145.81196,-204.64989)"><path
       d="m 85.3,154.91 -2.37,5.106 c 0,0 -9.383,-3.316 -8.01,-6.497 1.372,-3.19 10.38,1.39 10.38,1.39 z m 38.548,7.448 -2.31,5.13 c 0,0 8.647,4.928 10.155,1.808 1.507,-3.12 -7.845,-6.938 -7.845,-6.938 z m -9.8,16.898 -5.62,-0.285 c 0,0 -1.44,9.85 2.014,10.12 3.455,0.27 3.606,-9.83 3.606,-9.83 z m -21.335,0.434 5.566,-0.825 c 0,0 2.38,9.663 -1.03,10.263 -3.42,0.6 -4.54,-9.438 -4.54,-9.438 z"
       fill="#e8b699"
       id="path1" /><path
       d="m 75.866,152.624 c -0.428,0.176 -0.76,0.462 -0.947,0.895 -1.38,3.18 8.01,6.49 8.01,6.49 l 0.72,-1.56 c -5.41,-1.4 -8.86,-4.1 -7.79,-5.84 z m 19.522,26.67 -2.675,0.396 c 0,0.003 1.1,9.81 4.422,9.453 -2.048,-0.103 -3.5,-9.052 -1.747,-9.85 z m 13.042,-0.324 c 0,0 -1.442,9.85 2.012,10.118 -1.662,-0.518 -1.228,-6.122 -0.914,-10.06 z m 14.15,-13.796 -1.043,2.314 c 0,0 2.426,1.376 4.93,2.213 -3.104,-2.01 -3.083,-3.28 -3.887,-4.52 z"
       opacity="0.15"
       fill="#000000"
       id="path2-7" /><path
       d="m 124.44,155.818 c 0,14.315 -2.77,25.92 -20.83,25.92 -18.06,0 -20.83,-11.605 -20.83,-25.92 0,-14.314 2.4,-25.68 20.83,-25.92 18.427,-0.237 20.83,11.606 20.83,25.92 z"
       fill="#aad5e3"
       paint-order="stroke fill markers"
       id="path3" /><path
       d="m 99.593,130.154 c -14.77,1.77 -16.815,12.463 -16.815,25.664 0,10.727 1.478,21.115 11.945,24.67 -5.564,-7.223 -7.607,-16.863 -4.59,-21.704 0.425,-0.683 0.95,-1.27 1.582,-1.74 l 2.34,-20.736 c -0.244,-3.183 1.505,-5.287 5.538,-6.154 z"
       opacity="0.15"
       fill="#100722"
       paint-order="stroke fill markers"
       id="path4" /><path
       d="m 101.79,158.604 h 3.968 c 0,0 1.338,3.123 0.472,3.97 -0.865,0.844 -4.3,0.908 -5.055,0 -0.757,-0.91 0.614,-3.97 0.614,-3.97 z"
       fill="#ffffff"
       id="path5" /><path
       d="m 101.79,158.604 c 0,0 -1.37,3.06 -0.615,3.97 0.382,0.46 1.45,0.67 2.523,0.656 -3.825,-0.495 0.154,-6.333 0.075,-4.626 z"
       opacity="0.15"
       fill="#000000"
       id="path6" /><path
       d="m 107.404,159.026 c -1.213,1.312 -1.928,0.137 -3.66,0.137 -1.732,0 -2.526,1.058 -3.333,0.2 -0.8,-0.858 -1.54,-3.413 3.32,-3.575 4.86,-0.16 4.89,1.925 3.68,3.238 z"
       fill="#e8b699"
       paint-order="stroke fill markers"
       id="path7" /><path
       d="m 103.73,155.788 c -4.82,0.138 -4.126,2.717 -3.32,3.575 0.49,0.484 0.865,0.36 1.523,0.158 -2.15,-1.48 -0.183,-3.96 2.242,-3.72 -0.145,-0.01 -0.292,-0.01 -0.446,-0.01 z"
       opacity="0.15"
       fill="#000000"
       paint-order="stroke fill markers"
       id="path8" /><path
       d="m 106.26,155.44 c 0,0.885 -1.058,1.225 -2.363,1.225 -1.304,0 -2.362,-0.34 -2.362,-1.225 0,-0.886 1.058,-1.982 2.362,-1.982 1.305,0 2.363,1.096 2.363,1.982 z"
       fill="#323232"
       paint-order="stroke fill markers"
       id="path9-7" /><path
       d="m 118.114,121.78 c 4.316,-1.77 5.762,-3.87 3.547,-6.987 -2.21,-3.117 -1.37,-7.072 0.51,-7.93 -1.25,2.654 1.87,4.913 3.85,7.81 1.98,2.896 2.27,9.348 -2.67,11.514 -3.24,-0.668 -7.22,-0.94 -5.23,-4.408 z"
       fill="#dbdbdb"
       id="path10" /><path
       d="m 82.598,139.997 c 0.282,-11.15 5.277,-21.582 21.366,-25.16 14.657,3.26 20.792,12.13 21.366,25.16 -17.1,-7.112 -30.636,-5.347 -42.732,0 z"
       fill="#818181"
       id="path11" /><path
       d="m 89.034,122.497 c -4.316,-1.77 -5.762,-3.87 -3.547,-6.986 2.215,-3.11 1.37,-7.07 -0.51,-7.93 1.25,2.66 -1.865,4.92 -3.84,7.81 -1.977,2.9 -2.266,9.35 2.667,11.52 3.24,-0.66 7.22,-0.94 5.23,-4.4 z"
       fill="#dbdbdb"
       id="path12" /><path
       d="m 102.107,115.3 c -0.427,0.114 -0.844,0.235 -1.254,0.36 h -0.002 l -0.3,0.09 v 0.01 c -12.47,3.94 -17.06,12.627 -17.83,22.14 5.78,-2.633 7.62,-7.432 7.65,-9.793 3.215,-2.08 1.09,-7.718 8.6,-9.436 1.25,0.47 -0.442,8.62 -0.442,8.62 l 4.3,0.63 0.44,-12.23 z"
       opacity="0.15"
       fill="#000000"
       id="path13" /><path
       d="m 100.188,127.913 h 7.537 c 0,0 -0.962,-12.797 -1.21,-13.24 -0.25,-0.44 -1.437,-1.06 -1.437,-1.06 0,0 -0.114,-1.54 -0.277,-2.833 -0.16,-1.293 -0.78,-1.595 -0.92,0 -0.14,1.596 -0.23,2.833 -0.23,2.833 0,0 -1.17,0.61 -1.43,1.06 -0.26,0.453 -2.02,13.24 -2.02,13.24 z"
       fill="#a8a8a8"
       id="path14" /><path
       d="m 91.395,135.925 2.08,1.89 c 5.81,-0.88 12.71,-1.14 18.897,-0.047 l 2.22,-1.795 c 0,0 -9.732,-2.882 -23.197,-0.048 z m 30.775,-29.063 c -1.88,0.858 -2.725,4.814 -0.51,7.93 2.216,3.118 0.77,5.218 -3.546,6.987 -0.847,1.47 -0.61,2.37 0.188,2.96 2.936,-1.76 6.43,-4.75 5.833,-7.1 -0.69,-2.71 -5.734,-6.27 -1.965,-10.79 z"
       opacity="0.15"
       fill="#000000"
       id="path15" /><path
       d="m 117.542,121.25 1.56,6.837 c -5.117,2.563 -7.658,-7.648 -1.56,-6.837 z"
       opacity="0.15"
       fill="#000000"
       id="path16" /><path
       d="m 120.713,120.44 c -0.407,-0.705 -2.232,0.074 -3.17,0.81 -3.492,2.334 1.243,9.278 5.13,6.897 1.19,-0.688 2.897,-2.324 2.212,-2.9 -3.008,0.334 -5.122,-2.75 -4.172,-4.807 z"
       fill="#595959"
       id="path17" /><path
       d="m 84.978,107.58 c 1.25,2.655 -1.866,4.913 -3.842,7.81 -1.976,2.896 -2.265,9.35 2.668,11.514 1.655,-0.34 3.5,-0.58 4.647,-1.192 -2.86,-1.088 -7.77,-4.678 -5.4,-9.15 2.4,-4.53 3.78,-6.67 1.93,-8.982 z"
       opacity="0.15"
       fill="#000000"
       id="path18" /><path
       d="m 86.433,121.197 c 0.407,-0.705 2.23,0.075 3.17,0.81 3.49,2.334 -1.244,9.278 -5.13,6.898 -1.192,-0.69 -2.898,-2.324 -2.213,-2.9 3.008,0.334 5.122,-2.75 4.173,-4.808 z"
       fill="#595959"
       id="path19" /><path
       d="m 85.933,124.36 c -0.774,1.06 -2.1,1.82 -3.673,1.646 -0.685,0.575 1.02,2.21 2.213,2.9 2.118,1.296 4.484,-0.177 5.638,-2.162 -1.04,1.626 -5.3,-1.11 -4.17,-2.383 z"
       opacity="0.15"
       fill="#000000"
       id="path20" /><path
       d="m 82.803,131.71 c -3.002,5.428 -0.72,10.156 1.495,8.823 3.473,-6.016 36.36,-5.467 39.815,0.52 2.564,1.645 4.69,-1.78 1.34,-9.21 -3.35,-7.43 -38.702,-6.412 -42.65,-0.134 -3.947,6.27 0,0 0,0 z"
       fill="#a8a8a8"
       id="path21" /><path
       d="m 120.297,131.49 v 3.93 c -1.71,-0.44 -2.018,-3.417 0,-3.93 z"
       opacity="0.15"
       fill="#000000"
       id="path22" /><path
       d="m 89.685,128.264 c -3.133,0.73 -6.114,2.084 -6.844,3.387 -3.03,5.42 -0.8,10.22 1.46,8.89 0.94,-1.61 4,-2.75 8.04,-3.44 -8.22,2.88 -5.55,-7.77 -2.65,-8.82 z"
       opacity="0.15"
       fill="#080808"
       id="path23" /><circle
       cx="91.986"
       cy="146.89301"
       r="10.163"
       fill="#ffffff"
       paint-order="stroke fill markers"
       id="circle23" /><circle
       cx="115.744"
       cy="146.008"
       r="10.163"
       fill="#ffffff"
       paint-order="stroke fill markers"
       id="circle24" /><circle
       cx="111.887"
       cy="145.994"
       r="2.2260001"
       fill="#323232"
       paint-order="stroke fill markers"
       id="circle25" /><circle
       cx="113"
       cy="145.353"
       r="0.66600001"
       fill="#ffffff"
       paint-order="stroke fill markers"
       id="circle26" /><path
       d="m 91.986,136.73 c -5.613,0 -10.163,4.55 -10.163,10.163 0.005,5.503 4.39,10.003 9.892,10.15 -11.76,-3.396 -7.24,-20.934 2.27,-20.114 -0.66,-0.14 -1.328,-0.2 -2,-0.2 z m 23.758,-0.885 c -5.613,0 -10.163,4.55 -10.163,10.163 0.01,5.503 4.4,10.003 9.9,10.15 -11.76,-3.396 -7.24,-20.934 2.27,-20.114 -0.66,-0.132 -1.33,-0.2 -2,-0.2 z"
       opacity="0.15"
       fill="#000000"
       paint-order="stroke fill markers"
       id="path26" /><path
       d="m 103.845,128.277 0.142,6.557 c -5.686,0.117 -4.804,-7.182 -0.142,-6.557 z"
       opacity="0.15"
       fill="#000000"
       id="path27" /><circle
       cx="104.01"
       cy="131.464"
       r="3.441"
       fill="#818181"
       paint-order="stroke fill markers"
       id="circle27" /><path
       d="m 103.868,128.027 c -1.843,0.077 -3.298,1.592 -3.3,3.437 0.003,1.843 1.458,3.358 3.3,3.434 -3.12,-1.173 -2.442,-6.21 0,-6.87 z"
       opacity="0.15"
       fill="#0b0b0b"
       paint-order="stroke fill markers"
       id="path28" /><path
       d="m 94.374,129.64 0.1,4.62 c -4.008,0.084 -3.386,-5.06 -0.1,-4.62 z"
       opacity="0.15"
       fill="#000000"
       id="path29" /><circle
       cx="94.489998"
       cy="131.886"
       r="2.425"
       fill="#818181"
       paint-order="stroke fill markers"
       id="circle29" /><path
       d="m 94.39,129.464 c -1.3,0.054 -2.324,1.122 -2.325,2.422 0.002,1.3 1.027,2.367 2.325,2.42 -2.2,-0.826 -1.72,-4.376 0,-4.842 z"
       opacity="0.15"
       fill="#0b0b0b"
       paint-order="stroke fill markers"
       id="path30" /><path
       d="m 88.888,133.276 c 0,1.117 -0.49,2.023 -1.606,2.023 -1.118,0 -2.024,-0.91 -2.024,-2.03 0,-1.12 0.906,-2.03 2.024,-2.03 1.117,0 1.606,0.9 1.606,2.02 z"
       fill="#818181"
       paint-order="stroke fill markers"
       id="path31" /><path
       d="m 113.77,129.71 0.098,4.622 c -4.007,0.083 -3.385,-5.062 -0.1,-4.62 z"
       opacity="0.15"
       fill="#000000"
       id="path32" /><circle
       cx="113.885"
       cy="131.957"
       r="2.425"
       fill="#818181"
       paint-order="stroke fill markers"
       id="circle32" /><path
       d="m 113.785,129.535 c -1.3,0.053 -2.325,1.122 -2.325,2.422 0.002,1.3 1.027,2.366 2.325,2.42 -2.2,-0.826 -1.72,-4.376 0,-4.842 z"
       opacity="0.15"
       fill="#0b0b0b"
       paint-order="stroke fill markers"
       id="path33"><title
         id="title32">Viking Gopher</title></path><path
       d="m 119.14,133.455 c 0,1.118 0.49,2.024 1.608,2.024 1.117,0 2.023,-0.91 2.023,-2.03 0,-1.12 -0.9,-2.03 -2.02,-2.03 -1.12,0 -1.6,0.9 -1.6,2.02 z m 5.896,2.027 c 0.057,1.117 0.175,2.074 1.29,2.017 1.117,-0.06 1.926,-1.01 1.87,-2.13 -0.058,-1.12 -0.96,-1.98 -2.076,-1.92 -1.116,0.05 -1.14,0.91 -1.084,2.02 z m -41.66,-0.374 c -0.056,1.116 -0.11,2.07 -1.225,2.014 -1.11,-0.056 -1.92,-1.004 -1.86,-2.12 0.06,-1.116 0.96,-1.978 2.08,-1.922 1.12,0.056 1.08,0.91 1.02,2.028 z"
       fill="#818181"
       paint-order="stroke fill markers"
       id="path34" /><path
       d="m 103.923,121.79 0.063,2.927 c -2.54,0.052 -2.145,-3.208 -0.063,-2.928 z"
       opacity="0.15"
       fill="#000000"
       id="path35" /><circle
       cx="103.997"
       cy="123.212"
       r="1.5369999"
       fill="#818181"
       paint-order="stroke fill markers"
       id="circle35" /><path
       d="m 103.933,121.677 c -0.823,0.034 -1.473,0.71 -1.473,1.535 0,0.823 0.65,1.5 1.473,1.533 -1.393,-0.523 -1.09,-2.773 0,-3.068 z"
       opacity="0.15"
       fill="#0b0b0b"
       paint-order="stroke fill markers"
       id="path36" /><circle
       cx="95.202003"
       cy="86.291"
       fill="#818181"
       paint-order="stroke fill markers"
       id="ellipse36"
       r="0" /><circle
       cx="95.235001"
       cy="83.084"
       fill="#818181"
       paint-order="stroke fill markers"
       id="ellipse37"
       r="0" /><path
       d="m 87.28,131.252 c -1.116,0 -2.022,0.906 -2.022,2.024 0,0.993 0.716,1.818 1.66,1.99 -1.67,-1.25 -1.125,-3.31 0.435,-4.01 -0.024,0 -0.047,-0.004 -0.072,-0.004 z m -3.904,3.856 c -0.056,1.116 -0.11,2.07 -1.225,2.014 -1.11,-0.056 -1.92,-1.004 -1.86,-2.12 0.06,-1.116 0.96,-1.978 2.08,-1.922 1.12,0.056 1.08,0.91 1.02,2.028 z m 42.312,-1.548 c -0.682,0.21 -0.7,0.928 -0.647,1.93 0.06,1.01 0.17,1.88 1,1.995 -0.87,0.05 -1.06,-3.693 -0.35,-3.924 z m -5.39,-2.07 c -0.8,0.215 -1.156,1.012 -1.156,1.965 0,0.954 0.357,1.75 1.155,1.966 -1.055,-0.77 -0.923,-3.37 0,-3.93 z"
       opacity="0.15"
       fill="#000000"
       paint-order="stroke fill markers"
       id="path37" /><path
       d="m 117.542,121.25 c -1.48,0.99 -1.478,2.807 -0.692,4.39 -0.39,-1.314 3.38,-4.09 4.007,-2.62 -0.42,-0.843 -0.51,-1.788 -0.144,-2.58 -0.536,-0.79 -2.462,0.265 -3.17,0.81 z m -13.9,-7.637 c 0.205,-0.07 0.41,-0.127 0.616,-0.118 l 0.017,-3.8 c -0.467,0.05 -0.44,2.11 -0.633,3.918 z"
       opacity="0.15"
       fill="#000000"
       id="path38" /><circle
       cx="96.360001"
       cy="146.297"
       r="2.2260001"
       fill="#323232"
       paint-order="stroke fill markers"
       id="circle38" /><circle
       cx="97.472"
       cy="145.65601"
       r="0.66600001"
       fill="#ffffff"
       paint-order="stroke fill markers"
       id="circle39" /><path
       d="m 104.12,117.992 0.047,2.216 c -1.92,0.04 -1.623,-2.427 -0.048,-2.216 z"
       opacity="0.15"
       fill="#000000"
       id="path39" /><circle
       cx="104.175"
       cy="119.069"
       r="1.163"
       fill="#818181"
       paint-order="stroke fill markers"
       id="circle40" /><path
       d="m 104.127,117.908 c -0.623,0.026 -1.115,0.538 -1.115,1.16 0,0.624 0.492,1.136 1.115,1.16 -1.055,-0.395 -0.826,-2.097 0,-2.32 z"
       opacity="0.15"
       fill="#0b0b0b"
       paint-order="stroke fill markers"
       id="path40" /><path
       d="m 104.202,114.88 0.035,1.593 c -1.38,0.028 -1.166,-1.743 -0.035,-1.592 z"
       opacity="0.15"
       fill="#000000"
       id="path41" /><circle
       cx="104.243"
       cy="115.655"
       r="0.83499998"
       fill="#818181"
       paint-order="stroke fill markers"
       id="circle41" /><path
       d="m 104.208,114.82 c -0.447,0.02 -0.8,0.387 -0.8,0.835 0,0.447 0.353,0.815 0.8,0.833 -0.757,-0.284 -0.593,-1.507 0,-1.667 z"
       opacity="0.15"
       fill="#0b0b0b"
       paint-order="stroke fill markers"
       id="path42" /></g><g
     inkscape:label="Genkit"
     inkscape:groupmode="layer"
     id="layer1"
     transform="translate(-40.530716,-26.291189)"
     style="display:inline;mix-blend-mode:normal"><path
       id="path9"
       style="font-variation-settings:normal;opacity:1;mix-blend-mode:normal;fill:#ffffff;fill-rule:evenodd;stroke:#2c2c2c;stroke-width:20;stroke-linecap:round;stroke-linejoin:round;stroke-miterlimit:4;stroke-dasharray:none;stroke-dashoffset:0;stroke-opacity:1;paint-order:stroke fill markers;stop-color:#000000;stop-opacity:1;fill-opacity:1"
       inkscape:label="G"
       d="m 351.15946,88.538587 c -2.01086,0.228055 -4.26307,0.510373 -5.6981,2.102276 -1.42786,1.564248 -1.28167,3.980382 -0.38518,5.771538 1.18731,2.201961 2.13174,4.538969 2.67897,6.984309 1.19642,4.7779 1.66427,9.7583 2.54685,14.64356 2.49477,16.32334 4.90408,32.66055 7.65854,48.94234 -0.0114,2.96836 3.52396,5.19444 6.21216,3.99145 2.07416,-0.89696 2.97301,-3.38659 2.65556,-5.51307 -0.81608,-4.05583 -1.38087,-8.18844 -2.07348,-12.27492 -0.32306,-2.01407 -0.63961,-4.02929 -0.9561,-6.0444 3.46449,2.1067 6.48319,4.98868 9.29393,7.944 4.46448,4.65744 8.66116,9.56244 12.70293,14.58886 0.67103,0.97915 1.66262,1.78246 2.86435,1.96008 2.30292,0.45374 4.95062,-1.01444 5.4328,-3.38811 0.4347,-2.00615 -0.65199,-3.98088 -2.00437,-5.38853 -1.7332,-1.79519 -3.28858,-3.75379 -4.96302,-5.60414 -5.50172,-6.30007 -11.30369,-12.32907 -17.19978,-18.2592 3.27723,-5.6191 7.72487,-10.38041 11.98189,-15.23789 4.86732,-5.4096 9.87446,-10.77227 15.71955,-15.14575 1.11273,-0.78146 2.4199,-1.1991 3.7175,-1.54574 1.57467,-0.6246 2.66516,-2.3955 2.27074,-4.08684 -0.22641,-2.50921 -1.31772,-5.172872 -3.59943,-6.464495 -1.84129,-0.898784 -4.01339,-0.123583 -5.52783,1.068416 -2.85745,2.148029 -4.97859,5.069859 -7.47568,7.594109 -7.82641,8.46836 -15.75875,16.84938 -23.40653,25.4854 -0.66546,0.72608 -1.32673,1.45608 -2.00148,2.17355 -1.54231,-10.18045 -3.06845,-20.36358 -4.83883,-30.5071 -0.48535,-3.010322 -0.6393,-6.043181 -0.68216,-9.10278 -0.1049,-1.865208 -1.16069,-3.835375 -3.03895,-4.409379 -0.60286,-0.213202 -1.24691,-0.2977 -1.88485,-0.277544 z m 70.80169,0.02844 c -0.1342,-0.005 -0.26861,-0.0044 -0.40281,0.0018 -2.00794,0.172041 -4.25847,0.349371 -5.75678,1.870449 -1.4266,1.423713 -1.39833,3.670909 -0.83479,5.475276 1.04073,3.305194 1.28809,6.775968 1.59579,10.193518 0.47473,6.16056 0.52112,12.35946 1.03349,18.52593 l 0.80959,13.40272 c -2.42388,-0.20487 -4.76307,-0.75396 -7.16321,-1.12205 -2.27735,-0.009 -4.13699,1.85645 -4.84676,3.90469 -0.59099,1.60735 -1.21584,3.42437 -0.6008,5.11674 0.82932,2.07118 3.28211,3.22317 5.38492,2.91294 2.56164,-0.18148 5.15482,-0.22609 7.73487,-0.22966 0.25976,7.58327 -0.0425,15.18403 -0.91795,22.70242 -0.28254,1.67121 -0.74365,3.47441 0.0213,5.09225 0.7563,1.76758 2.7496,2.84922 4.64444,2.58393 1.81345,-0.0141 3.84488,-0.01 5.28593,-1.28836 1.39336,-1.2466 1.5152,-3.29828 1.30204,-5.03539 -0.33613,-2.81425 -0.37445,-5.6424 -0.55725,-8.4955 -0.28138,-5.09811 -0.53428,-10.20004 -0.81247,-15.29693 0.008,-0.3331 0.68273,-0.0354 0.94818,-0.11879 2.09551,0.044 4.20889,0.20087 6.29387,-0.0504 2.60809,-0.77744 3.95603,-3.96039 3.0861,-6.4591 -0.48993,-2.35618 -2.78012,-4.19164 -5.19881,-4.08072 -1.74727,-0.0381 -3.46309,0.21592 -5.20818,0.14363 -0.58416,0.22768 -0.45967,-0.35539 -0.48813,-0.74551 -0.52644,-10.308 -1.34455,-20.58765 -1.62134,-30.90452 -0.0447,-4.12161 0.22293,-8.220241 0.77072,-12.282832 0.17923,-1.797056 -0.26475,-3.876989 -1.86614,-4.929908 -0.7678,-0.543698 -1.69633,-0.85142 -2.63576,-0.886627 z m -206.6742,2.643684 c 0,-0.08844 -0.17686,9.75e-4 -0.2653,0.0015 -5.25922,1.027893 -10.73493,1.618386 -15.62055,3.994684 -3.70932,1.947444 -7.03035,4.545358 -10.22014,7.240255 -6.22641,5.42762 -11.46138,12.16044 -14.46502,19.89961 -3.00853,8.08169 -3.02751,17.13233 -0.52773,25.34934 2.10671,7.53575 5.8866,14.72379 11.51356,20.22576 4.0361,3.52663 9.49718,5.06738 14.7879,5.02134 11.22481,0.41067 22.67378,-1.95112 32.4672,-7.55739 2.77135,-1.54484 5.54899,-3.22953 7.95121,-5.32265 0.19959,1.76496 0.38042,3.5328 0.56876,5.29997 0.41668,4.46168 0.48717,7.46013 0.6314,11.94157 0.38064,2.54876 3.15495,4.2333 5.61819,3.83125 2.08797,-0.26329 3.856,-2.08403 4.00476,-4.19411 0.26404,-2.04013 -0.45117,-4.10404 -0.5432,-6.05412 -1.13344,-9.96282 -1.9086,-18.50807 -3.74378,-28.37604 -0.45429,-2.28377 -0.91126,-4.61908 -2.09616,-6.65709 -1.45938,-2.69718 -3.92179,-4.98498 -6.97243,-5.67254 -3.26573,-0.7842 -6.64203,-0.29655 -9.95413,-0.21383 -7.38066,0.3332 -8.13963,0.66914 -15.52732,0.37583 -2.53773,-0.11086 -5.13041,-0.34143 -7.57647,-1.13286 -0.96998,-0.25845 -1.95624,-0.54184 -2.9637,-0.5774 -2.36013,0.29523 -4.07517,2.3586 -4.78086,4.51017 -0.60763,1.51991 -1.08666,3.37889 -0.15731,4.87483 1.21125,2.06667 3.87977,2.79274 6.1243,2.34022 10.61974,-0.73919 14.63911,-1.28569 25.2975,-1.0353 1.87647,0.0705 3.67853,0.0646 5.51199,0.46401 0.61973,0.15934 1.16996,0.49196 1.61523,0.93523 1.10027,3.60406 1.10722,8.72033 -1.80421,11.97937 -2.66271,2.95745 -6.16761,4.97554 -9.66147,6.7928 -4.44722,2.20982 -9.26682,3.49608 -14.18352,4.07568 -3.30694,0.39826 -6.68318,0.5428 -10.00849,0.23686 -2.53075,-0.302 -5.02218,-1.06108 -7.19739,-2.45649 -2.0346,-1.30957 -3.60735,-3.20259 -5.06058,-5.10846 -3.17835,-4.38716 -5.24436,-9.54944 -6.16752,-14.87756 -0.4176,-2.48927 -0.55247,-4.98579 -0.3553,-7.51995 0.21594,-2.62178 0.86341,-5.39513 1.85641,-7.92098 2.46994,-6.31218 6.92061,-11.71808 12.07585,-16.00428 3.06776,-2.51902 6.48616,-4.58373 10.28997,-5.69126 2.10161,-0.65101 4.43658,-0.86243 6.65672,-0.93342 1.70437,-0.0941 3.42852,-0.0126 5.1171,-0.28331 2.04038,-0.34481 3.41775,-2.38611 3.43384,-4.379498 0.0677,-1.637697 -0.67123,-3.167984 -1.405,-4.586488 -0.8409,-1.561426 -2.41849,-2.85961 -4.26431,-2.835193 z m 36.91043,54.142979 c -0.15813,3.26749 0.33811,6.53613 1.08534,9.70898 0.92439,3.58025 2.75835,6.91062 5.29277,9.60351 3.60136,3.91388 8.23391,6.75747 13.10862,8.80688 5.36977,2.21851 11.13075,3.24951 16.86716,3.97776 2.63257,0.37281 5.27872,0.78472 7.94401,0.74804 2.50589,-0.56101 4.13072,-3.13144 4.18619,-5.60271 0.30747,-2.18652 -1.30948,-4.39182 -3.45651,-4.84027 -1.9832,-0.53938 -4.06817,-0.24021 -6.07861,-0.60332 -6.78146,-0.71142 -13.6565,-2.3591 -19.51372,-5.90726 -2.25068,-1.38699 -4.33735,-3.11289 -5.86549,-5.28845 4.16303,1.98804 9.05284,2.37181 13.47616,1.06122 5.43817,-1.44296 10.46826,-4.60769 13.91606,-9.07758 2.12825,-3.09842 2.81747,-7.3555 1.11701,-10.79936 -1.8425,-3.55469 -5.30408,-5.94964 -8.91055,-7.48179 -4.24239,-1.89397 -9.02364,-2.62916 -13.62339,-1.88126 -11.1199,1.3297 -18.79862,6.52321 -19.54505,17.57561 z m 135.59892,-21.2161 c -2.58455,0.27098 -4.55202,2.56374 -5.09766,5.00334 -0.64,2.37581 -0.0558,5.268 2.02668,6.76004 0.947,0.69936 2.1185,1.07506 3.29272,1.09794 -1.05145,1.36265 -1.09463,3.30912 -0.27142,4.79239 0.95329,1.734 2.45458,3.09682 3.37984,4.85287 2.57965,4.3425 4.45252,9.04901 6.22979,13.76235 0.9999,2.70543 2.09084,5.37593 3.12678,8.06712 0.76906,2.06646 1.39943,4.21633 2.52093,6.1254 1.77401,2.32128 5.88573,2.20088 7.40332,-0.34451 1.16335,-2.01639 0.64192,-4.54798 -0.47229,-6.46521 -3.27261,-8.21308 -6.71873,-16.36271 -9.47536,-24.76077 -0.67311,-2.1079 -1.09128,-4.34145 -1.90573,-6.42202 -0.54711,-1.37066 -1.79492,-2.43908 -3.26824,-2.65701 -0.76651,-0.15926 -1.59983,0.0446 -2.30027,0.21779 0.39958,-0.88776 0.32259,-1.88847 0.51045,-2.81539 0.42555,-1.13457 0.52602,-2.43655 -0.0403,-3.54328 -0.84901,-1.88368 -2.74269,-3.16089 -4.71752,-3.61094 -0.31067,-0.0555 -0.62666,-0.0694 -0.94171,-0.0601 z m -63.76231,1.89097 c -4.3546,0.1936 -8.30975,2.76446 -10.92787,6.14556 -2.31,2.96528 -3.74403,6.5044 -4.76612,10.09416 -0.16402,-1.82718 -0.14359,-3.66346 -0.25018,-5.50083 -0.24254,-1.90937 -1.60505,-3.7917 -3.58827,-4.11527 -1.94534,-0.41185 -3.99035,-0.0524 -5.82409,0.64687 -1.64074,0.7465 -2.8311,2.51055 -2.62749,4.34458 0.12389,1.96692 1.1735,3.70724 1.57815,5.61279 2.61846,9.01238 4.20529,18.31444 5.12502,27.62296 0.16459,1.3421 0.0954,2.76725 0.69151,4.01197 1.03506,2.03285 3.30921,3.10086 5.48284,3.32944 1.98546,0.22083 4.12881,-0.61767 5.18945,-2.36469 1.1169,-1.66067 1.15659,-3.76236 0.90031,-5.67831 -0.34534,-6.77621 0.0683,-13.6162 1.50255,-20.21029 0.88536,-3.86589 2.10193,-7.81828 4.68332,-10.91383 1.19151,-1.34533 2.99464,-2.44331 4.85288,-2.01084 3.08099,0.51891 5.5853,2.57915 7.85833,4.58901 5.14321,4.71072 8.5035,11.18822 9.89329,17.96905 1.05489,5.01873 1.07061,10.17323 1.48707,15.25734 0.40499,2.15683 2.65034,3.52785 4.74704,3.51159 1.56223,-0.0452 3.26699,-0.1195 4.55734,-1.11557 1.57688,-1.15984 2.01928,-3.29877 1.72465,-5.1441 -0.35586,-2.0427 -0.60928,-4.07805 -0.83551,-6.14195 -0.60692,-5.4717 -1.22682,-11.05913 -3.48316,-16.14288 -3.25033,-7.60771 -8.58547,-14.29858 -15.20153,-19.25346 -2.363,-1.74327 -4.92485,-3.32966 -7.8137,-4.01196 -1.616,-0.41005 -3.2891,-0.59572 -4.95583,-0.53134 z m -47.13021,12.99775 c 0.17672,0.005 0.35377,0.0179 0.53133,0.0392 1.07532,0.0942 2.27687,0.32092 3.31145,0.70736 1.15355,0.43607 2.28696,1.04588 3.13217,1.95505 0.33122,0.44303 -0.14877,0.99268 -0.41973,1.34523 -2.1822,2.44112 -5.24157,4.20182 -8.53546,4.48749 -1.64543,0.15491 -3.44556,-0.17742 -4.91191,-1.04357 -1.76244,-0.98862 -3.13069,-2.5589 -4.11131,-4.30462 2.13547,-1.55903 4.70697,-2.46501 7.33348,-2.69876 1.21538,-0.19946 2.43297,-0.52389 3.66998,-0.48742 z"
       sodipodi:nodetypes="ccccccccccccccccccccccccccccccccccccccccccccccccccccccccccscscccccccccccccccccccccccccccccccccccccccccccsccccccccccccccccccccccccccccccccccccccccccccccccccccccccccccsccccccccscccsc" /><g
       id="g254"
       style="opacity:1"
       transform="translate(-3.1750001,-1.0583333)"><path
         id="path190"
         style="font-variation-settings:normal;opacity:1;fill:#aad5e3;fill-opacity:1;stroke:#2c2c2c;stroke-width:9.80795;stroke-linecap:round;stroke-linejoin:round;stroke-miterlimit:4;stroke-dasharray:none;stroke-dashoffset:0;stroke-opacity:1;paint-order:stroke markers fill;stop-color:#000000;stop-opacity:1"
         d="m 288.6267,173.97074 c -6.16989,0.62421 -11.83039,3.47356 -17.10562,6.56595 -3.1019,1.8444 -5.81701,4.35293 -7.72793,7.42795 -5.36641,8.20058 -6.30364,15.06204 -1.23302,24.72507 2.21855,4.04313 4.63834,6.02495 8.78255,7.93021 5.19494,2.65995 11.05032,4.27124 16.91991,3.80356 2.79356,-0.0835 5.52885,-0.76855 8.09848,-1.84718 3.955,-1.48017 7.98587,-3.42466 10.64586,-6.81701 1.68702,-2.89278 0.91976,-6.35608 0.542,-9.48333 -0.46283,-3.098 -0.48324,-6.4159 -2.05029,-9.21435 -1.01547,-1.62592 -3.00369,-2.36064 -4.86221,-2.16239 -4.93924,0.11525 -4.68962,-0.21283 -9.62941,-0.0128 -2.07487,-0.0167 -4.63347,0.49561 -5.60431,2.56467 -0.83497,2.08043 0.81328,4.29494 2.72272,5.05161 3.28332,1.28658 6.72238,-0.31152 10.08049,-0.15631 2.22383,0.14361 -0.52006,0.80935 0.9189,2.62306 0.6962,1.3242 0.49781,2.92329 0.30223,4.34681 -0.90018,3.27099 -4.24617,5.15731 -7.40702,5.6688 -3.65526,0.62841 -7.43896,0.0188 -10.9073,-1.1286 -2.53467,-0.76761 -5.13686,-1.38572 -7.24583,-2.87064 -2.55215,-1.64397 -3.79644,-4.629 -4.38576,-7.49367 -0.67251,-3.1335 0.1978,-6.41754 1.95122,-9.05053 1.63112,-2.54282 4.14874,-4.55445 6.53602,-6.41938 2.35655,-1.74514 4.86033,-3.34205 7.54275,-4.52991 2.823,-0.98942 5.95331,-1.25857 8.52695,-2.86434 1.70486,-2.07892 0.33274,-5.54311 -2.15636,-6.27737 -1.04177,-0.36197 -2.16074,-0.42908 -3.25502,-0.37996 z"
         sodipodi:nodetypes="scccccccccccccccccccccccccss" /><path
         id="path191"
         style="font-variation-settings:normal;opacity:1;fill:#aad5e3;fill-opacity:1;stroke:#2c2c2c;stroke-width:9.80795;stroke-linecap:round;stroke-linejoin:round;stroke-miterlimit:4;stroke-dasharray:none;stroke-dashoffset:0;stroke-opacity:1;paint-order:stroke markers fill;stop-color:#000000;stop-opacity:1"
         d="m 332.23573,178.6882 c -5.81471,0.37358 -11.70132,2.87607 -15.28235,7.60378 -2.94826,3.50756 -5.51874,7.73708 -5.64427,12.44088 0.0698,7.6265 3.79221,15.395 10.38694,19.45777 3.66734,2.33441 8.25954,3.26387 12.50844,2.21287 5.45897,-1.06288 10.80979,-3.28584 15.02381,-6.97062 1.80685,-1.665 2.3842,-4.12555 3.19172,-6.34815 1.83255,-5.57104 2.5172,-11.86187 0.22206,-17.40492 -2.21478,-5.25305 -7.199,-9.02018 -12.6889,-10.30156 -2.5141,-0.63955 -5.13065,-0.84448 -7.71745,-0.69005 z m 1.84004,7.93804 c 3.29696,0.11818 6.65795,1.29623 9.08032,3.57567 1.10439,1.47708 1.36875,3.38156 1.84495,5.1206 0.86214,3.8526 0.58058,8.29094 -2.07735,11.41375 -2.39298,2.85485 -5.86925,4.69246 -9.46793,5.5175 -2.93739,0.63159 -6.42953,0.26741 -8.5118,-2.12273 -2.04673,-2.18746 -3.61941,-4.87219 -4.40418,-7.76872 -0.57789,-2.38753 -0.21716,-5.00765 1.20268,-7.0416 2.05122,-3.68702 5.10081,-7.24871 9.36656,-8.28557 0.96772,-0.25541 1.96504,-0.40397 2.96675,-0.4089 z" /><path
         id="path192"
         style="font-variation-settings:normal;opacity:1;fill:#aad5e3;fill-opacity:1;stroke:#2c2c2c;stroke-width:9.80795;stroke-linecap:round;stroke-linejoin:round;stroke-miterlimit:4;stroke-dasharray:none;stroke-dashoffset:0;stroke-opacity:1;paint-order:stroke markers fill;stop-color:#000000;stop-opacity:1"
         d="m 374.04317,175.76079 c -2.45684,0.0786 -3.14355,13.89783 -3.11682,32.57513 0.0266,1.35067 -0.20527,2.74096 0.079,4.0661 0.88359,2.45529 4.0713,3.1229 6.29133,2.21117 1.89636,-0.85787 2.53814,-3.18819 2.20444,-5.10105 0.0814,-9.53237 0.33875,-19.0664 0.16782,-28.59827 0.20506,-1.91519 -0.52358,-4.28371 -2.57096,-4.86754 -0.97947,-0.34117 -2.03661,-0.23443 -3.05475,-0.28554 z"
         sodipodi:nodetypes="sccccccss" /><path
         id="path193"
         style="font-variation-settings:normal;opacity:1;fill:#aad5e3;fill-opacity:1;stroke:#2c2c2c;stroke-width:9.80795;stroke-linecap:round;stroke-linejoin:round;stroke-miterlimit:4;stroke-dasharray:none;stroke-dashoffset:0;stroke-opacity:1;paint-order:stroke markers fill;stop-color:#000000;stop-opacity:1"
         d="m 391.85287,203.1617 c -3.24851,0.34414 -5.43029,3.62821 -5.55382,6.71405 -0.11659,1.87168 0.41494,4.26196 2.40088,4.94427 2.10862,0.62464 4.20199,-0.92035 5.04742,-2.78851 0.8832,-1.67276 -0.0452,-8.80939 -1.40941,-8.8498 -0.16027,-0.0261 -0.32338,-0.0232 -0.48507,-0.02 z"
         sodipodi:nodetypes="sccccss" /><path
         id="path194"
         style="font-variation-settings:normal;opacity:1;mix-blend-mode:normal;fill:#aad5e3;fill-opacity:1;stroke:#2c2c2c;stroke-width:9.80795;stroke-linecap:round;stroke-linejoin:round;stroke-miterlimit:4;stroke-dasharray:none;stroke-dashoffset:0;stroke-opacity:1;paint-order:stroke markers fill;stop-color:#000000;stop-opacity:1"
         d="m 414.44278,181.41557 c -3.98354,0.11083 -7.71317,1.9784 -10.85412,4.3155 -4.43335,3.66645 -6.4074,9.75605 -5.65134,15.38201 0.30271,3.95367 1.34668,8.17673 4.42454,10.91251 6.12136,5.27668 17.98525,4.35803 20.68814,-5.89473 1.74119,-5.63774 2.7123,-11.84216 0.78807,-17.56637 -1.22498,-4.00345 -5.071,-7.36687 -9.39529,-7.14892 z m -1.7918,6.12433 c 11.18709,1.02459 5.71446,31.30014 -6.88744,19.79261 -3.03452,-7.78823 -2.9955,-20.69775 6.88744,-19.79261 z"
         sodipodi:nodetypes="cccccccscs" /></g></g></svg>
