<?xml version="1.0" encoding="UTF-8" standalone="no"?>
<!-- Created with Inkscape (http://www.inkscape.org/) -->

<svg
   width="200mm"
   height="200mm"
   viewBox="0 0 200 200"
   version="1.1"
   id="svg1"
   xml:space="preserve"
   inkscape:version="1.4 (e7c3feb100, 2024-10-09)"
   sodipodi:docname="factory.svg"
   xmlns:inkscape="http://www.inkscape.org/namespaces/inkscape"
   xmlns:sodipodi="http://sodipodi.sourceforge.net/DTD/sodipodi-0.dtd"
   xmlns="http://www.w3.org/2000/svg"
   xmlns:svg="http://www.w3.org/2000/svg"><sodipodi:namedview
     id="namedview1"
     pagecolor="#505050"
     bordercolor="#eeeeee"
     borderopacity="1"
     inkscape:showpageshadow="0"
     inkscape:pageopacity="0"
     inkscape:pagecheckerboard="0"
     inkscape:deskcolor="#d1d1d1"
     inkscape:document-units="mm"
     inkscape:zoom="0.80176768"
     inkscape:cx="110.3811"
     inkscape:cy="298.71496"
     inkscape:window-width="1920"
     inkscape:window-height="1051"
     inkscape:window-x="1280"
     inkscape:window-y="29"
     inkscape:window-maximized="1"
     inkscape:current-layer="layer1" /><defs
     id="defs1" /><g
     inkscape:label="Layer 1"
     inkscape:groupmode="layer"
     id="layer1"><path
       id="path3"
       style="opacity:0.5;fill:#f9f9f9;fill-opacity:1;stroke:#333333;stroke-width:4;stroke-linecap:round;stroke-linejoin:round;stroke-dasharray:none;stroke-opacity:1"
       d="m 79.699649,7.1625978 a 27.588934,21.810987 0 0 0 -27.588598,21.8113942 27.588934,21.810987 0 0 0 0.569323,4.152631 22.222862,22.222862 0 0 0 -20.120076,22.072338 22.222862,22.222862 0 0 0 22.22301,22.222976 v 0.231448 H 112.24791 V 77.15524 a 22.22287,24.379559 0 0 0 1.00786,0.07893 22.22287,24.379559 0 0 0 22.22298,-24.379752 22.22287,24.379559 0 0 0 -22.22298,-24.37979 22.22287,24.379559 0 0 0 -6.00997,0.928365 27.588934,21.810987 0 0 0 0.043,-0.428926 A 27.588934,21.810987 0 0 0 79.699679,7.1626708 Z" /><path
       id="rect1"
       style="fill:#ff6600;fill-opacity:1;stroke:#333333;stroke-width:3.58224;stroke-linecap:round;stroke-linejoin:round;stroke-dasharray:none;stroke-opacity:1"
       d="M 97.471445,41.578765 71.385669,69.235387 85.363697,69.063563 V 109.67819 H 110.2069 v -40.65181 0 l 12.09243,-0.419307 z"
       sodipodi:nodetypes="ccccccccc" /><path
       id="path2"
       style="fill:#999999;fill-opacity:1;stroke:#333333;stroke-width:4;stroke-linecap:round;stroke-linejoin:round;stroke-dasharray:none;stroke-opacity:1"
       d="m 141.51086,38.367523 -3.27534,61.45497 -25.36169,20.799167 -2.66693,-40.000586 -46.22301,44.445256 -1.000251,-43.556688 -39.22328,38.001318 0.222142,60.22359 110.011979,-0.32457 -0.0395,0.73925 h 40.89057 L 167.28971,38.367523 Z" /><rect
       style="fill:#e6e6e6;fill-opacity:1;stroke:#333333;stroke-width:3.58224;stroke-linecap:round;stroke-linejoin:round;stroke-dasharray:none;stroke-opacity:1"
       id="rect2"
       width="30.000942"
       height="21.68643"
       x="34.834629"
       y="139.86353" /><rect
       style="fill:#e6e6e6;fill-opacity:1;stroke:#333333;stroke-width:3.58224;stroke-linecap:round;stroke-linejoin:round;stroke-dasharray:none;stroke-opacity:1"
       id="rect2-5"
       width="30.000942"
       height="21.68643"
       x="74.764519"
       y="139.86353" /><rect
       style="fill:#e6e6e6;fill-opacity:1;stroke:#333333;stroke-width:3.58224;stroke-linecap:round;stroke-linejoin:round;stroke-dasharray:none;stroke-opacity:1"
       id="rect2-5-5"
       width="30.000942"
       height="21.68643"
       x="114.27129"
       y="139.86353" /></g></svg>
