<?xml version="1.0" encoding="UTF-8" standalone="no"?>
<!-- Created with Inkscape (http://www.inkscape.org/) -->

<svg
   width="200mm"
   height="200mm"
   viewBox="0 0 200 200"
   version="1.1"
   id="svg1"
   xml:space="preserve"
   inkscape:version="1.4 (e7c3feb100, 2024-10-09)"
   sodipodi:docname="lifecycle.svg"
   xmlns:inkscape="http://www.inkscape.org/namespaces/inkscape"
   xmlns:sodipodi="http://sodipodi.sourceforge.net/DTD/sodipodi-0.dtd"
   xmlns="http://www.w3.org/2000/svg"
   xmlns:svg="http://www.w3.org/2000/svg"><sodipodi:namedview
     id="namedview1"
     pagecolor="#505050"
     bordercolor="#eeeeee"
     borderopacity="1"
     inkscape:showpageshadow="0"
     inkscape:pageopacity="0"
     inkscape:pagecheckerboard="0"
     inkscape:deskcolor="#d1d1d1"
     inkscape:document-units="mm"
     inkscape:zoom="0.40088384"
     inkscape:cx="-430.29921"
     inkscape:cy="240.71811"
     inkscape:window-width="1920"
     inkscape:window-height="1051"
     inkscape:window-x="1280"
     inkscape:window-y="29"
     inkscape:window-maximized="1"
     inkscape:current-layer="layer1" /><defs
     id="defs1"><inkscape:path-effect
       effect="fillet_chamfer"
       id="path-effect2"
       is_visible="true"
       lpeversion="1"
       nodesatellites_param="F,0,0,1,0,2.817158,0,1 @ F,0,0,1,0,3.3900272,0,1 @ F,0,0,1,0,2.9146495,0,1"
       radius="0"
       unit="px"
       method="auto"
       mode="F"
       chamfer_steps="1"
       flexible="false"
       use_knot_distance="true"
       apply_no_radius="true"
       apply_with_radius="true"
       only_selected="false"
       hide_knots="false" /><inkscape:path-effect
       effect="fillet_chamfer"
       id="path-effect2-0"
       is_visible="true"
       lpeversion="1"
       nodesatellites_param="F,0,0,1,0,2.817158,0,1 @ F,0,0,1,0,3.3900272,0,1 @ F,0,0,1,0,2.9146495,0,1"
       radius="0"
       unit="px"
       method="auto"
       mode="F"
       chamfer_steps="1"
       flexible="false"
       use_knot_distance="true"
       apply_no_radius="true"
       apply_with_radius="true"
       only_selected="false"
       hide_knots="false" /></defs><g
     inkscape:label="Layer 1"
     inkscape:groupmode="layer"
     id="layer1"><path
       style="fill:#666666;fill-opacity:1;stroke:#333333;stroke-width:4.19073;stroke-linecap:round;stroke-linejoin:round;stroke-dasharray:none;stroke-opacity:1"
       d="m 119.21789,155.02513 c 0,0 -51.00424,15.77828 -109.714155,-8.8065 1.834691,-30.45576 16.879114,-38.89532 16.879114,-38.89532 L 53.903116,96.682161 c 10.543909,0.0126 50.270364,-0.733867 50.270364,-0.733867 l 18.34685,7.705646 c 0,0 27.52026,50.27037 -3.30244,51.37119 z"
       id="path7"
       sodipodi:nodetypes="ccccccc" /><path
       style="fill:#e6e6e6;fill-opacity:1;stroke:#333333;stroke-width:4.71752;stroke-linecap:round;stroke-linejoin:round;stroke-dasharray:none;stroke-opacity:1"
       d="M 59.590652,90.627737 63.74207,75.838296 95.915557,76.097759 98.510193,89.589882 78.272032,117.35244 Z"
       id="path11" /><rect
       style="fill:#4d4d4d;fill-opacity:1;stroke:#333333;stroke-width:6.18467;stroke-linecap:round;stroke-linejoin:round;stroke-dasharray:none;stroke-opacity:1;paint-order:stroke fill markers"
       id="rect8"
       width="10.50793"
       height="16.168701"
       x="73.891296"
       y="120.83344"
       ry="0.83225286" /><path
       style="fill:#b3b3b3;fill-opacity:1;stroke:#333333;stroke-width:3.87623;stroke-linecap:round;stroke-linejoin:round;stroke-dasharray:none;stroke-opacity:1"
       d="m 53.536187,96.498701 8.07262,21.465789 16.695619,-8.43954 -5.870986,2.93549 0.366929,9.17342 12.659324,0.36694 1.100817,-9.17342 -7.338731,-3.85284 18.346829,9.17342 7.155282,-22.016206 -6.421394,-6.054426 -18.16338,17.796402 -2.752028,-0.18348 -17.796436,-17.062513 z"
       id="path8" /><path
       id="path9"
       style="fill:#ececec;fill-opacity:1;stroke:#333333;stroke-width:9.17243;stroke-linecap:round;stroke-linejoin:round;stroke-dasharray:none;stroke-opacity:1;paint-order:stroke fill markers"
       d="m 74.707238,21.108615 c -11.482224,3.432169 -18.793877,5.18998 -23.68291,24.616036 -0.11558,0.459093 -1.705651,-0.45859 -2.509973,-0.378361 -1.959783,0.203639 -3.137465,4.326076 -2.630426,9.20775 0.506945,4.881281 2.506419,8.673585 4.466124,8.4707 0.645231,-0.0673 1.506319,-1.583891 1.764053,-0.615384 4.281276,16.087545 15.031938,24.443641 27.458074,24.473488 12.575132,-0.0206 24.93088,-13.21357 26.97242,-25.717357 0.0524,-0.23097 0.54302,-0.275267 0.77583,-0.17557 1.9636,-0.05504 3.86967,-3.234741 4.38778,-7.549919 0.51822,-4.31532 -0.81155,-7.834197 -2.97012,-7.859625 -0.51504,-0.0063 -1.02107,0.473639 -1.80175,0.0079 -2.1048,-19.581467 -18.953073,-23.853417 -21.137033,-24.480218 -2.18396,-0.626802 -9.393212,-0.507212 -11.092069,5.97e-4 z"
       sodipodi:nodetypes="sscccscccccczs" /><path
       style="fill:#4d4d4d;fill-opacity:1;stroke:#333333;stroke-width:3.87623;stroke-linecap:round;stroke-linejoin:round;stroke-dasharray:none;stroke-opacity:1"
       d="m 53.520698,45.724651 c 0,0 3.608525,-7.026668 4.735211,-13.102912 20.289755,3.594121 32.692414,-1.297318 38.14115,-5.189272 3.373027,11.416398 5.059541,14.465096 7.913641,18.35705 6.48659,-1.556782 5.77306,-2.8541 5.77306,-2.8541 0,0 8.69203,-25.297702 -6.61632,-26.335556 -0.0648,-4.864958 -21.924673,-22.5084662 -51.24406,-3.178429 -11.935326,13.232644 -5.837931,31.914023 1.297318,32.303219 z"
       id="path12"
       sodipodi:nodetypes="cccccccc" /><path
       id="path1"
       style="fill:#ff6600;fill-opacity:1;stroke:#333333;stroke-width:3.27872;stroke-linecap:round;stroke-linejoin:round;stroke-opacity:1"
       d="m 169.51099,49.584962 c -0.81248,0.04513 -1.52654,0.553617 -1.83488,1.30669 l -0.98327,2.400463 c -4.58516,-1.825711 -9.47322,-2.771291 -14.40847,-2.787268 -21.70109,-1.26e-4 -39.29334,17.592104 -39.29321,39.2932 0.0346,6.527044 1.69464,12.942663 4.83019,18.667353 l 6.75039,-6.56837 c -1.69367,-3.810448 -2.58331,-7.929204 -2.61336,-12.098983 -2.2e-4,-16.748816 13.57718,-30.326578 30.32599,-30.326814 3.76671,0.02956 7.49493,0.760716 10.99387,2.155876 l -0.72405,1.767434 c -0.83363,2.034446 1.01161,4.148068 3.13995,3.596637 l 8.43494,-2.184306 c 3.68008,-1.037131 4.26436,-1.508364 2.24039,-5.172304 l -4.89113,-8.9542 c -0.3897,-0.713949 -1.15521,-1.140177 -1.96735,-1.095408 z m 13.54874,15.8005 -6.47003,6.294509 c 3.90547,5.233554 6.01733,11.587928 6.02147,18.118076 -2.2e-4,16.748753 -13.578,30.326173 -30.3268,30.325953 -0.77874,-0.0403 -1.55563,-0.11039 -2.32896,-0.21047 v 9.00377 c 0.77443,0.081 1.55109,0.13901 2.32896,0.1739 21.70108,1.3e-4 39.29333,-17.59212 39.2932,-39.293153 -0.005,-8.865431 -3.00583,-17.468993 -8.51784,-24.412585 z"
       sodipodi:nodetypes="ccccccccccccccccccccccccc" /><path
       id="path4"
       style="fill:#b3b3b3;fill-opacity:1;stroke:#333333;stroke-width:3.14446;stroke-linecap:round;stroke-linejoin:round;stroke-dasharray:none;stroke-dashoffset:0;stroke-opacity:1"
       d="m 135.2178,100.53078 v 4.75854 c -2.18836,0.69901 -4.20056,1.86104 -5.89975,3.40711 l -4.12155,-2.37984 -4.85542,8.40948 4.1381,2.38897 c -0.25661,1.11448 -0.393,2.25329 -0.40681,3.39683 0.0142,1.14358 0.15018,2.28237 0.40681,3.39685 l -4.1381,2.38897 4.85542,8.4095 4.12155,-2.37985 c 1.69914,1.54626 3.71134,2.7085 5.89975,3.40767 v 4.75798 h 9.71081 v -4.75798 c 2.18822,-0.69923 4.20021,-1.86147 5.89918,-3.40767 l 4.12157,2.37985 4.8554,-8.4095 -4.1381,-2.38897 c 0.25662,-1.11448 0.393,-2.25327 0.40681,-3.39685 -10e-4,-1.14865 -0.1269,-2.2938 -0.37376,-3.41564 l 4.10505,-2.37016 -4.8554,-8.40948 -4.10163,2.36786 c -1.70414,-1.55112 -3.72322,-2.71584 -5.91912,-3.41451 v -4.73916 z m 4.85483,11.85193 c 4.48981,-2.4e-4 8.12967,3.63936 8.12975,8.12916 -8e-5,4.48982 -3.63994,8.12944 -8.12975,8.1292 -4.48958,-9e-5 -8.12909,-3.6396 -8.12917,-8.1292 8e-5,-4.48958 3.63959,-8.12909 8.12917,-8.12916 z"
       sodipodi:nodetypes="cccccccccccccccccccccccccccccccc" /><rect
       style="fill:#ff6600;fill-opacity:1;stroke:none;stroke-width:3.58739;stroke-linecap:round;stroke-linejoin:round;stroke-dasharray:none;stroke-opacity:1"
       id="rect2"
       width="5.7660303"
       height="4.4569683"
       x="95.004219"
       y="172.76393"
       transform="matrix(0.71909398,-0.69491284,0.62505172,0.78058334,0,0)"
       inkscape:transform-center-x="26.332601"
       inkscape:transform-center-y="-16.8117"
       ry="0.56842273"
       rx="0.45734569" /><path
       style="fill:#cccccc;fill-opacity:1;stroke:#333333;stroke-width:3.40448;stroke-linecap:round;stroke-linejoin:round;stroke-dasharray:none;stroke-opacity:1"
       d="m 73.234259,186.39126 c -8.584615,-2.31587 -29.442918,-2.06338 -45.224975,-2.75202 -0.183473,-16.97084 0.654681,-44.61397 1.100808,-52.65547 6.225376,-1.16141 41.614113,-2.84171 44.39937,5.50406 0.317184,12.1014 0.05214,37.4951 -0.275203,49.90343 z"
       id="path3-47"
       sodipodi:nodetypes="ccccc" /><path
       style="fill:#cccccc;fill-opacity:1;stroke:#333333;stroke-width:3.40448;stroke-linecap:round;stroke-linejoin:round;stroke-dasharray:none;stroke-opacity:1"
       d="m 73.234259,186.39126 c 8.584615,-2.31587 29.442921,-2.06338 45.224971,-2.75202 0.18348,-16.97084 -0.65468,-44.61397 -1.1008,-52.65547 -6.22538,-1.16141 -41.614117,-2.84171 -44.399374,5.50406 -0.317184,12.1014 -0.05214,37.4951 0.275203,49.90343 z"
       id="path3-47-6"
       sodipodi:nodetypes="ccccc" /><path
       style="fill:#f2f2f2;fill-opacity:1;stroke:#333333;stroke-width:3.40448;stroke-linecap:round;stroke-linejoin:round;stroke-dasharray:none;stroke-opacity:1"
       d="m 74.256133,186.28227 c -4.35139,-3.76385 -8.714748,-9.44861 -37.519299,-8.62301 -0.183472,-16.97084 -0.07919,-43.88009 0.366935,-51.92158 13.747583,1.22368 35.376185,1.01113 36.877163,10.27423 0.317184,12.1014 0.602556,37.86203 0.275201,50.27036 z"
       id="path3"
       sodipodi:nodetypes="ccccc" /><path
       style="fill:#f2f2f2;fill-opacity:1;stroke:#333333;stroke-width:3.40448;stroke-linecap:round;stroke-linejoin:round;stroke-dasharray:none;stroke-opacity:1"
       d="m 73.705728,186.28227 c 4.351393,-3.76385 8.714753,-9.44861 37.519302,-8.62301 0.18348,-16.97084 0.0793,-43.88009 -0.36693,-51.92158 -13.747588,1.22368 -35.376195,1.01113 -36.877168,10.27423 -0.317175,12.1014 -0.602553,37.86203 -0.275204,50.27036 z"
       id="path3-4"
       sodipodi:nodetypes="ccccc" /><path
       style="fill:#333333;stroke:#333333;stroke-width:3.75697;stroke-linecap:round;stroke-linejoin:round;stroke-dasharray:none;stroke-opacity:1;paint-order:stroke fill markers"
       d="m 84.481731,142.80698 c 2.475,-1.155 12.257659,-3.22465 17.372659,-3.22465"
       id="path5"
       sodipodi:nodetypes="cc" /><path
       style="fill:#333333;stroke:#333333;stroke-width:3.75697;stroke-linecap:round;stroke-linejoin:round;stroke-dasharray:none;stroke-opacity:1;paint-order:stroke fill markers"
       d="m 85.088483,151.81317 c 4.2075,-1.65 13.990167,-2.89465 15.227667,-2.48215"
       id="path5-6"
       sodipodi:nodetypes="cc" /></g></svg>
