<svg id="svg-icons-stock" xmlns="http://www.w3.org/2000/svg" xmlns:xlink="http://www.w3.org/1999/xlink" version="1.1">
	<symbol id="social-linkedin" class="icon-symbol" viewBox="0 0 24 24">
		<path d="M19,19H16V13.7A1.5,1.5 0 0,0 14.5,12.2A1.5,1.5 0 0,0 13,13.7V19H10V10H13V11.2C13.5,10.36 14.59,9.8 15.5,9.8A3.5,3.5 0 0,1 19,13.3M6.5,8.31C5.5,8.31 4.69,7.5 4.69,6.5A1.81,1.81 0 0,1 6.5,4.69C7.5,4.69 8.31,5.5 8.31,6.5A1.81,1.81 0 0,1 6.5,8.31M8,19H5V10H8M20,2H4C2.89,2 2,2.89 2,4V20A2,2 0 0,0 4,22H20A2,2 0 0,0 22,20V4C22,2.89 21.1,2 20,2Z" />
	</symbol>
	<symbol id="social-instagram" class="icon-symbol" viewBox="0 0 24 24">
		<path d="M20,6.5A0.5,0.5 0 0,1 19.5,7H17.5A0.5,0.5 0 0,1 17,6.5V4.5A0.5,0.5 0 0,1 17.5,4H19.5A0.5,0.5 0 0,1 20,4.5M4.5,20A0.5,0.5 0 0,1 4,19.5V11H6.09C6.03,11.32 6,11.66 6,12A6,6 0 0,0 12,18A6,6 0 0,0 18,12C18,11.66 17.96,11.32 17.91,11H20V19.5A0.5,0.5 0 0,1 19.5,20M12,8A4,4 0 0,1 16,12A4,4 0 0,1 12,16A4,4 0 0,1 8,12A4,4 0 0,1 12,8M20,2H4C2.89,2 2,2.89 2,4V20A2,2 0 0,0 4,22H20A2,2 0 0,0 22,20V4C22,2.89 21.1,2 20,2Z" />
	</symbol>
	<symbol id="social-facebook" class="icon-symbol" viewBox="0 0 24 24">
		<path d="M19,4V7H17A1,1 0 0,0 16,8V10H19V13H16V20H13V13H11V10H13V7.5C13,5.56 14.57,4 16.5,4M20,2H4A2,2 0 0,0 2,4V20A2,2 0 0,0 4,22H20A2,2 0 0,0 22,20V4C22,2.89 21.1,2 20,2Z" />
	</symbol>
	<symbol id="triple-bars" class="icon-symbol" viewBox="0 0 24 24">
		<path d="M3,18h18v-2H3V18z M3,13h18v-2H3V13z M3,6v2h18V6H3z"></path>
	</symbol>
</svg>
